<svg id="Calque_1" data-name="Calque 1" xmlns="http://www.w3.org/2000/svg" viewBox="0 0 867.82 328.87"><defs><style>.cls-1{fill:#eb5a2e;}.cls-2{fill:#fff;}.cls-3{isolation:isolate;}</style></defs><title>banniere2</title><rect class="cls-1" width="867.82" height="328.87"/><path class="cls-2" d="M58.85,287.34a8.14,8.14,0,0,1-1.5-4.85c0-3.11,0-5.88-1.14-7.66s-4.42-6.32-5.86-10.08-2.78-7-3.45-7.12-2.87,8.31-1.58,13.52,2.22,6,2.67,7.52-.23,2.85.35,6.1A42,42,0,0,0,50.72,292c.16.62-.53,1.56-1.24,2.24a16.52,16.52,0,0,1-3.62,2c-.93.41-1.78.52-1.61,1a5,5,0,0,0,1.46,2.59,4.86,4.86,0,0,0,2.81.62c.67,0,1.07-2.38,1.87-2.62a43.72,43.72,0,0,1,5.09-1.55c.69,0,2.57,1.15,5.13.23a7.67,7.67,0,0,1,5-.51c1.61.3,5.2,1.58,5.57,1.47s-.61-1.64-1.47-2.27c-1.25-.92-1.6-1-2.46-1.73s-2.86-1.81-3.59-1.66a7.06,7.06,0,0,1,1.69-2.54c1-.75,1.9-2,2.45-2.14s1.51-.29,1.63-.5-2-.32-2-.32S66.74,285,64,285.15,59.66,287,58.85,287.34Z"/><path class="cls-2" d="M68.43,222.34s-5.11-3.32-6.52-6.75-3.6-7.12-6.31-8.35-9.83-5.07-14.22-6-4.53.26-2.37,1.55c4.49,2.67,5.55,5.26,6.79,8.05s3.13,10.46,7.31,13.48,7.18,4.72,7.47,6.16a2.2,2.2,0,0,1-.78,2.2s-3.86,2.51-5.09,2.77-1.27,1.45.18,4.14,3.32,3.81,6.24,2.93,2.71-.26,2.9-2.44-.73-3.38.48-4.24,2.11-1.76,3.34-1.5,11,6.82,15.23,6.85,3.78-.57,6.4.52,8.2,6.57,9.64,5.76-2.54-5-5.37-8.49-6.88-8.19-8.82-8.71-8.77-1-9.88-2.9a4.22,4.22,0,0,1,1.61-1.65c1-.53,2.09-.46,3-1.2a3.81,3.81,0,0,1,2.2-.7,3,3,0,0,0-1.5-.59c-.66,0-2.1-2.59-5-1.93s-3.78,1.09-4.65,1.22A8.7,8.7,0,0,1,68.43,222.34Z"/><path class="cls-2" d="M201.51,244.4s-2-2.58-4.53-2-4.22,1.51-5.73,1.38-7.68-1.38-9.7-7.56.76-15.74-4.41-17.88-19.39-4.91-35.64-3.27-17.63,1.26-12.47,5S142.5,225,145.27,225s8.81.63,11.21,2.64,3.75,6.67,7.41,13.35,8.2,14,7.95,16.24-3.15,5-6.42,6.17-6,1.76-5.41,2.9,4.16,2.64,5.67,3.78,3.53,3,4.41,1.76,2.9-5.29,6.67-6.42,5.92-.63,12.09-4.16,10.06-9.22,10.81-10.1,3.29.66,4.55,2.17,3,5.54,6.55,8.19,4.66,7.3,7.3,8.06,1.64-10.7,1.51-16.37-.63-8.44-2.52-11.21-4-3.4-5.67-2.27S203.52,244.28,201.51,244.4Z"/><path class="cls-2" d="M134.94,95.69s.68-6.08-8.26-14-23.32-26.93-24.16-31.21-4.81-11.85-5.09-13.75-3.71,2.41-1.84,8.8,4.26,13.3,4.54,17.23,3.14,17.86,13.6,25.42,15.42,11.56,14.63,13a5.21,5.21,0,0,1-6.15,1.73c-2.53-1.11-8.86-5.29-9.84-3.95s-.07,15.56,7.77,20.16,17.61,3.68,19,2.86-5.44-3.73-3.77-6.1,5.12-.2,7.71-1.5,8.21,1.06,9.72,1.48-.39-1.52-.39-1.52,12.07,3.94,17,5.73,17.69,2.68,21,4.62,33.71,6.72,35.58,4.63c1.17-1.31-4.46-1.43-9.32-2.18s-20.14-4.8-25.39-8.48-13.09-8.29-16.75-9.71-15.32-1.61-19.8-2.3a60.47,60.47,0,0,1-6.93-1.31s-1.93-4-4.07-5.78S134.94,95.69,134.94,95.69Z"/><path class="cls-2" d="M94.53,167.41a16.37,16.37,0,0,1-1.68-10.07c.75-6.2,1.59-11.72-.22-15.56s-7.12-13.78-9-21.66S80,105.34,78.63,105s-7.93,15.78-6.77,26.51,2.82,12.58,3.3,15.69-1.22,5.63-.93,12.24,2.64,13.75,2.8,15-1.48,3-3.07,4.13-5.78,2.48-7.75,3-3.7.56-3.49,1.61.57,4.1,2.21,5.55a9.78,9.78,0,0,0,5.44,2c1.35.12,2.78-4.45,4.42-4.72s9.18-1.94,10.56-1.72,4.82,3,10.17,1.84,7-.7,10.14.33,9.93,4.54,10.71,4.42-.79-3.43-2.33-4.91c-2.25-2.16-2.93-2.4-4.43-4.1s-5.22-4.38-6.7-4.26c0,0,1.87-3.38,4-4.62s4.3-3.37,5.46-3.6,3.09-.18,3.39-.57-4-1.18-4-1.18-1-2.85-6.5-3.2S96.31,166.9,94.53,167.41Z"/><path class="cls-2" d="M277.4,195.1s-12.52-4.05-17.47-10.45-11.67-12.89-18-13.92-23.3-5-32.93-4.55-9.19,3.14-4,4.6c10.86,3,14.59,7.88,18.8,13S236.5,204,246.91,207.9s17.62,5.81,19.08,8.67a4.81,4.81,0,0,1-.31,5.07s-6.46,7.49-8.83,8.73-1.75,3.78,2.83,8.59,9.13,6.1,14.62,2.58,5.44-2.1,4.53-6.8-3.53-6.69-1.54-9.17,3.34-4.85,6-5,26.74,8,35.51,5.68,7.46-3.36,13.51-2.56,20.84,9.11,23.32,6.58-8.26-9.14-16.13-14.75-19-13.18-23.33-13.18-18.68,3-22.11-.44a9.08,9.08,0,0,1,2.33-4.4c1.82-1.7,4-2.17,5.51-4.24a8,8,0,0,1,4.12-2.73,6.48,6.48,0,0,0-3.45-.38c-1.36.43-5.87-4.23-11.41-1.2s-7.14,4.45-8.86,5.22A18.29,18.29,0,0,1,277.4,195.1Z"/><path class="cls-2" d="M128.27,289.72a10.44,10.44,0,0,1,4.06-1.34,4.85,4.85,0,0,1,2.62.72,3.46,3.46,0,0,0,1.59.46c.51,0-.05.31-.67.62s-1.23,1.64-2.31,2.52-3.8,5.19-6.53,6.53-6,1.65-7.76,2.62-3.34,3.8-4.16,4.11-3-2.78-3.8-3.86,1.49-2.16,3.08-2.31,3.29-1.59,2.42-2-6.53-8.69-7.5-11.26-2.12-12.19-3.81-15.19-1.08-9.56-.41-9.82,4.47,5.55,6,7.56,2.3,3.14,2.6,3.19.74-1.44.74-2.93-.36-3.65,3.34,1.13,8,7.25,7.71,9.77a34.93,34.93,0,0,0,0,6.58,25.31,25.31,0,0,0,.62,3.6A10,10,0,0,0,128.27,289.72Z"/><path class="cls-2" d="M286.13,98.12S279.61,95,275.42,86s-7.67-17.14-13.34-20.79-21.14-12.62-30.23-21.69-17.3-16.87-19.35-16.21S215,55.2,225.58,68.68s14.27,14.61,17.57,18.39,3.07,8.61,9,17.29,15.08,16.32,16.37,17.9.49,5.24-.68,8.14-5.72,8.18-7.9,10.6-4.51,3.85-3.35,5.1,4.2,5,7.63,5.64,7.08-.91,9-1.89,0-8.33,2-10.08S286,129.47,288,128.59s9,0,15.25-6,8.85-6.81,13.94-8.06,17.2-2.2,18.15-3-3.93-4-7.25-4.67c-4.85-1-6-.79-9.41-1.82s-10.71-1.53-12.61-.12c0,0-.31-6.12,1.59-9.62s3-8.15,4.34-9.43,4-2.84,4.09-3.61S309.73,84,309.73,84s-3.77-3-11.45,1.14S288.1,95.93,286.13,98.12Z"/><g class="cls-3"><path class="cls-2" d="M456.69,96.65q0,10.92-5.61,16.6t-15.51,5.67H423.44V75.83h13.1q9.47,0,14.82,5.34T456.69,96.65ZM446.43,97q0-6.7-2.47-9.84T436.65,84h-3.32v26.55h2.53q5.43,0,8-3.35T446.43,97Z"/><path class="cls-2" d="M497,75.83v27.64q0,7.36-4.16,11.71t-12.49,4.35q-7.91,0-12.1-4.16t-4.19-11.83V75.83h9.9v26.86q0,4.59,1.66,6.52a6.12,6.12,0,0,0,4.92,1.93q3.44,0,5-2t1.6-6.49V75.83Z"/><path class="cls-2" d="M540.21,118.92h-9.9V95.38q0-1.57.06-4T530.5,87a11.78,11.78,0,0,1-1.15,1.36q-.72.76-1.51,1.48l-4.47,4-5.25-6,13.52-12h8.57Z"/><path class="cls-2" d="M590.36,118.92l-2.41-9.35H575l-2.41,9.35H561.88L575,75.71h12.73L601,118.92ZM586,101.3l-2.35-9.42-.72-2.9q-.42-1.69-.81-3.38t-.63-3q-.24,1.27-.6,3T580,89q-.42,1.69-.66,2.9L577,101.3Z"/><path class="cls-2" d="M638.34,75.83v27.64q0,7.36-4.16,11.71t-12.49,4.35q-7.91,0-12.1-4.16t-4.19-11.83V75.83h9.9v26.86q0,4.59,1.66,6.52a6.12,6.12,0,0,0,4.92,1.93q3.44,0,5-2t1.6-6.49V75.83Z"/><path class="cls-2" d="M685.71,85.67a9.7,9.7,0,0,1-2.44,6.79A13.11,13.11,0,0,1,677,96.23v.18q9.78,1.45,9.78,10.14a12.53,12.53,0,0,1-1.81,6.73,12.05,12.05,0,0,1-5.46,4.59,22.13,22.13,0,0,1-9.14,1.66,32.36,32.36,0,0,1-6.25-.54,27,27,0,0,1-5.52-1.75v-8.51A24.84,24.84,0,0,0,664,110.8a20.54,20.54,0,0,0,5.07.69q4,0,5.73-1.42a5,5,0,0,0,1.69-4.07,4.52,4.52,0,0,0-1.93-4q-1.93-1.33-7.12-1.33h-2.72V93h2.72q4.83,0,6.76-1.48a4.73,4.73,0,0,0,1.93-4q0-4.22-5.19-4.22a10.64,10.64,0,0,0-4.59,1,31.76,31.76,0,0,0-3.56,1.93l-4.1-6.82a22.39,22.39,0,0,1,5.88-3,24,24,0,0,1,7.81-1.12q6.16,0,9.75,2.72A9.11,9.11,0,0,1,685.71,85.67Z"/><path class="cls-2" d="M725.48,118.92l-9.05-31.74h-.24q.12,1.45.24,3.53t.21,4.29q.09,2.2.09,4.07v19.86H707.8V75.83h13.4L730,106.25h.18l9-30.42h13.34v43.09h-9.23V98.82q0-1.81.06-4t.18-4.19q.12-2.05.18-3.5h-.24l-9.29,31.74Z"/><path class="cls-2" d="M785.59,118.92l-2.41-9.35H770.26l-2.41,9.35H757.11l13.16-43.21H783l13.28,43.21Zm-4.41-17.62-2.35-9.42-.72-2.9q-.42-1.69-.81-3.38t-.63-3q-.24,1.27-.6,3T775.27,89q-.42,1.69-.66,2.9l-2.35,9.42Z"/><path class="cls-2" d="M817.7,118.92H798.14v-5.49l4.83-2.17V83.43l-4.83-2.11V75.83H817.7v5.49l-4.83,2.11v27.82l4.83,2.17Z"/></g><g class="cls-3"><path class="cls-2" d="M469.8,210.41l-4.52-17.5H441.12l-4.52,17.5H416.5l24.62-80.85h23.83l24.84,80.85Zm-8.24-33-4.4-17.62-1.35-5.42q-.79-3.16-1.53-6.32t-1.19-5.53q-.45,2.37-1.13,5.53t-1.47,6.32q-.79,3.16-1.24,5.42l-4.4,17.62Z"/></g><g class="cls-3"><path class="cls-2" d="M529.54,144.13a13.49,13.49,0,0,0-12.25,7.06Q513,158.24,513,170.32q0,12.53,4.23,19.08T530.21,196a31.76,31.76,0,0,0,9-1.3,82.64,82.64,0,0,0,9.15-3.33v15.92A48,48,0,0,1,528,211.54q-11.52,0-19-5a30.18,30.18,0,0,1-11.24-14.34q-3.73-9.32-3.73-22a53.11,53.11,0,0,1,4.12-21.57,33.54,33.54,0,0,1,12-14.68q7.85-5.31,19-5.31A48.49,48.49,0,0,1,540.32,130a46.1,46.1,0,0,1,11,4.18l-5.53,14.91a53.9,53.9,0,0,0-8-3.56A25,25,0,0,0,529.54,144.13Z"/><path class="cls-2" d="M594,210.41H575.61v-65H557V129.79h55.67v15.58H594Z"/><path class="cls-2" d="M655,210.41H618.4V200.13l9-4.07V144l-9-4V129.79H655v10.28l-9,4v52.06l9,4.07Z"/><path class="cls-2" d="M734.93,170q0,12.65-3.78,22a30,30,0,0,1-11.69,14.45q-7.9,5.08-20,5.08t-19.87-5.08A30.52,30.52,0,0,1,668,192q-3.84-9.37-3.84-22.13,0-19.31,8.69-30.32t26.76-11q12.08,0,19.93,5a29.82,29.82,0,0,1,11.63,14.34Q734.93,157.22,734.93,170Zm-51.49,0q0,12.42,3.9,19.14t12.14,6.72q8.58,0,12.31-6.72T715.51,170q0-12.42-3.73-19.2T699.59,144q-8.47,0-12.31,6.77T683.44,170Z"/><path class="cls-2" d="M817.25,210.41H794.1l-28.79-57h-.45q.22,4.29.56,10.16t.45,10.84v36H749.16V129.79h23l28.68,56.12h.34q-.11-4.06-.4-9.71t-.4-10.5V129.79h16.83Z"/></g><g class="cls-3"><path class="cls-2" d="M436.18,232.15a17.81,17.81,0,0,1-1.15,6.68,9.11,9.11,0,0,1-3.55,4.39,11,11,0,0,1-6.07,1.54,10.84,10.84,0,0,1-6-1.54,9.26,9.26,0,0,1-3.53-4.39,17.65,17.65,0,0,1-1.17-6.72q0-5.86,2.64-9.2t8.12-3.34a11,11,0,0,1,6,1.53,9,9,0,0,1,3.53,4.35A17.77,17.77,0,0,1,436.18,232.15Zm-15.63,0a11.7,11.7,0,0,0,1.18,5.81,4.39,4.39,0,0,0,7.42,0,15.53,15.53,0,0,0,0-11.63,3.9,3.9,0,0,0-3.7-2.06,4,4,0,0,0-3.74,2.06A12,12,0,0,0,420.55,232.15Z"/><path class="cls-2" d="M450.06,244.42H439V241.3l2.74-1.23v-15.8l-2.74-1.2V220h11.1v3.12l-2.74,1.2v15.8l2.74,1.23Z"/><path class="cls-2" d="M467.78,237.26a7.49,7.49,0,0,1-1,3.86,6.93,6.93,0,0,1-2.9,2.67,10.16,10.16,0,0,1-4.68,1,17.09,17.09,0,0,1-3.58-.34,12.8,12.8,0,0,1-3.14-1.13V238a19.89,19.89,0,0,0,3.44,1.44,11.25,11.25,0,0,0,3.34.55,3.17,3.17,0,0,0,2.21-.65,2.11,2.11,0,0,0,.7-1.61,2.26,2.26,0,0,0-1-1.85,21.71,21.71,0,0,0-3.1-1.85,20.66,20.66,0,0,1-2.67-1.66,7.21,7.21,0,0,1-2-2.26,6.9,6.9,0,0,1-.77-3.44,6.38,6.38,0,0,1,2.21-5.17,9,9,0,0,1,5.95-1.85,14.26,14.26,0,0,1,3.6.45,17.75,17.75,0,0,1,3.32,1.23l-1.68,4.56a19.06,19.06,0,0,0-2.79-1.1,8.83,8.83,0,0,0-2.48-.38,2.78,2.78,0,0,0-1.9.57,1.86,1.86,0,0,0-.63,1.46,2.09,2.09,0,0,0,.39,1.29,4.49,4.49,0,0,0,1.3,1.08q.91.55,2.48,1.34a13.1,13.1,0,0,1,4,2.88A6.25,6.25,0,0,1,467.78,237.26Z"/><path class="cls-2" d="M484.77,244.42H471.55V220h13.23v4.63h-7.61v4.83h7.06V234h-7.06v5.69h7.61Z"/><path class="cls-2" d="M502.63,244.42l-1.37-5.31h-7.33l-1.37,5.31h-6.1l7.47-24.54h7.23l7.54,24.54Zm-2.5-10-1.34-5.35-.41-1.65q-.24-1-.46-1.92t-.36-1.68q-.14.72-.34,1.68t-.45,1.92q-.24,1-.38,1.65l-1.34,5.35Z"/><path class="cls-2" d="M529.87,220v15.7a9.21,9.21,0,0,1-2.36,6.65q-2.37,2.47-7.09,2.47-4.49,0-6.87-2.36a9,9,0,0,1-2.38-6.72V220h5.62V235.2a5.69,5.69,0,0,0,.94,3.7,3.48,3.48,0,0,0,2.79,1.1,3.42,3.42,0,0,0,2.86-1.15,6,6,0,0,0,.91-3.68V220Z"/><path class="cls-2" d="M553.55,244.42h-6.31l-4.39-8.19-4.42,8.19h-6.1l7.16-12.47-6.68-12h6.07l4,7.88,3.91-7.88h6.1l-6.68,12.2Z"/><path class="cls-2" d="M583,231.77q0,6.2-3.19,9.42T571,244.42h-6.89V220h7.44q5.38,0,8.41,3T583,231.77Zm-5.83.21q0-3.8-1.41-5.59a5,5,0,0,0-4.15-1.78h-1.89v15.08h1.44a5.36,5.36,0,0,0,4.54-1.9Q577.13,235.89,577.13,232Z"/><path class="cls-2" d="M600.5,244.42H587.27V220H600.5v4.63h-7.61v4.83H600V234h-7.06v5.69h7.61Z"/><path class="cls-2" d="M633.33,244.42h-7l-8.74-17.31h-.14q.07,1.3.17,3.08t.14,3.29v10.93h-5.07V220h7l8.7,17h.1q0-1.23-.12-2.95t-.12-3.19V220h5.11Z"/><path class="cls-2" d="M659.14,232.15a17.81,17.81,0,0,1-1.15,6.68,9.11,9.11,0,0,1-3.55,4.39,11,11,0,0,1-6.07,1.54,10.84,10.84,0,0,1-6-1.54,9.27,9.27,0,0,1-3.53-4.39,17.65,17.65,0,0,1-1.17-6.72q0-5.86,2.64-9.2t8.12-3.34a11,11,0,0,1,6,1.53,9,9,0,0,1,3.53,4.35A17.77,17.77,0,0,1,659.14,232.15Zm-15.63,0a11.7,11.7,0,0,0,1.18,5.81,4.39,4.39,0,0,0,7.42,0,15.53,15.53,0,0,0,0-11.63,3.9,3.9,0,0,0-3.7-2.06,4,4,0,0,0-3.74,2.06A12,12,0,0,0,643.51,232.15Z"/><path class="cls-2" d="M677.51,237.26a7.49,7.49,0,0,1-1,3.86,6.93,6.93,0,0,1-2.9,2.67,10.16,10.16,0,0,1-4.68,1,17.09,17.09,0,0,1-3.58-.34,12.8,12.8,0,0,1-3.14-1.13V238a19.89,19.89,0,0,0,3.44,1.44A11.25,11.25,0,0,0,669,240a3.17,3.17,0,0,0,2.21-.65,2.11,2.11,0,0,0,.7-1.61,2.26,2.26,0,0,0-1-1.85,21.71,21.71,0,0,0-3.1-1.85,20.66,20.66,0,0,1-2.67-1.66,7.21,7.21,0,0,1-2-2.26,6.9,6.9,0,0,1-.77-3.44,6.38,6.38,0,0,1,2.21-5.17,9,9,0,0,1,5.95-1.85,14.26,14.26,0,0,1,3.6.45,17.75,17.75,0,0,1,3.32,1.23l-1.68,4.56a19.06,19.06,0,0,0-2.79-1.1,8.83,8.83,0,0,0-2.48-.38,2.78,2.78,0,0,0-1.9.57,1.86,1.86,0,0,0-.63,1.46,2.09,2.09,0,0,0,.39,1.29,4.49,4.49,0,0,0,1.3,1.08q.91.55,2.48,1.34a13.1,13.1,0,0,1,4,2.88A6.25,6.25,0,0,1,677.51,237.26Z"/><path class="cls-2" d="M687.2,251.86a10.59,10.59,0,0,1-3.05-.38v-4.59q.48.14,1,.24a6.61,6.61,0,0,0,1.18.1,2.49,2.49,0,0,0,2.16-.94,6.12,6.12,0,0,0,.69-3.41V220h5.59v22.69a13,13,0,0,1-.94,5.43,6,6,0,0,1-2.66,2.9A8.58,8.58,0,0,1,687.2,251.86Z"/><path class="cls-2" d="M713.59,244.42l-1.37-5.31h-7.33l-1.37,5.31h-6.1l7.47-24.54h7.23l7.54,24.54Zm-2.5-10-1.34-5.35-.41-1.65q-.24-1-.46-1.92t-.36-1.68q-.14.72-.34,1.68t-.45,1.92q-.24,1-.38,1.65L706,234.41Z"/><path class="cls-2" d="M729.25,220q9.29,0,9.29,7.23a6.76,6.76,0,0,1-1.11,3.94,8.48,8.48,0,0,1-2.9,2.6l6.37,10.69h-6.27l-4.93-9.25h-1.82v9.25h-5.62V220Zm-.17,4.52h-1.2v6.31h1.23q3.7,0,3.7-3.36a2.67,2.67,0,0,0-.91-2.23A4.53,4.53,0,0,0,729.08,224.47Z"/><path class="cls-2" d="M762.25,231.77q0,6.2-3.19,9.42t-8.81,3.22h-6.89V220h7.44q5.38,0,8.41,3T762.25,231.77Zm-5.83.21q0-3.8-1.41-5.59a5,5,0,0,0-4.15-1.78H749v15.08h1.44a5.36,5.36,0,0,0,4.54-1.9Q756.43,235.89,756.43,232Z"/><path class="cls-2" d="M776.13,244.42H765V241.3l2.74-1.23v-15.8l-2.74-1.2V220h11.1v3.12l-2.74,1.2v15.8l2.74,1.23Z"/><path class="cls-2" d="M800.46,244.42h-7l-8.74-17.31h-.14q.07,1.3.17,3.08t.14,3.29v10.93H779.8V220h7l8.71,17h.1q0-1.23-.12-2.95t-.12-3.19V220h5.11Z"/><path class="cls-2" d="M819.72,237.26a7.49,7.49,0,0,1-1,3.86,6.93,6.93,0,0,1-2.9,2.67,10.16,10.16,0,0,1-4.68,1,17.09,17.09,0,0,1-3.58-.34,12.8,12.8,0,0,1-3.14-1.13V238a19.89,19.89,0,0,0,3.44,1.44,11.25,11.25,0,0,0,3.34.55,3.17,3.17,0,0,0,2.21-.65,2.11,2.11,0,0,0,.7-1.61,2.26,2.26,0,0,0-1-1.85,21.71,21.71,0,0,0-3.1-1.85,20.66,20.66,0,0,1-2.67-1.66,7.21,7.21,0,0,1-2-2.26,6.9,6.9,0,0,1-.77-3.44,6.38,6.38,0,0,1,2.21-5.17,9,9,0,0,1,5.95-1.85,14.26,14.26,0,0,1,3.6.45,17.75,17.75,0,0,1,3.32,1.23L818,225.85a19.06,19.06,0,0,0-2.79-1.1,8.83,8.83,0,0,0-2.48-.38,2.78,2.78,0,0,0-1.9.57,1.86,1.86,0,0,0-.63,1.46,2.09,2.09,0,0,0,.39,1.29,4.49,4.49,0,0,0,1.3,1.08q.91.55,2.48,1.34a13.1,13.1,0,0,1,4,2.88A6.25,6.25,0,0,1,819.72,237.26Z"/></g></svg>