<svg id="Calque_1" data-name="Calque 1" xmlns="http://www.w3.org/2000/svg" viewBox="0 0 867.82 328.87"><defs><style>.cls-1{fill:#eb5a2e;}.cls-2{fill:#fff;}</style></defs><title>banniere2019</title><rect class="cls-1" width="867.82" height="328.87"/><path class="cls-2" d="M51,279a8.14,8.14,0,0,1-1.5-4.85c0-3.11,0-5.88-1.14-7.66s-4.42-6.32-5.86-10.08-2.78-7-3.45-7.12-2.87,8.31-1.58,13.52,2.22,6,2.67,7.52-.23,2.85.35,6.1a42,42,0,0,0,2.38,7.22c.16.62-.53,1.56-1.24,2.24a16.52,16.52,0,0,1-3.62,2c-.93.41-1.78.52-1.61,1a5,5,0,0,0,1.46,2.59,4.86,4.86,0,0,0,2.81.62c.67,0,1.07-2.38,1.87-2.62a43.72,43.72,0,0,1,5.09-1.55c.69,0,2.57,1.15,5.13.23a7.67,7.67,0,0,1,5-.51c1.61.3,5.2,1.58,5.57,1.47s-.61-1.64-1.47-2.27c-1.25-.92-1.6-1-2.46-1.73s-2.86-1.81-3.59-1.66a7.06,7.06,0,0,1,1.69-2.54c1-.75,1.9-1.95,2.45-2.14s1.51-.29,1.63-.5-2-.32-2-.32-.69-1.34-3.42-1.15S51.81,278.62,51,279Z" transform="translate(7.85 8.34)"/><path class="cls-2" d="M60.58,214s-5.11-3.32-6.52-6.75-3.6-7.12-6.31-8.35-9.83-5.07-14.22-6-4.53.26-2.37,1.55c4.49,2.67,5.55,5.26,6.79,8.05s3.13,10.46,7.31,13.48,7.18,4.72,7.47,6.16a2.2,2.2,0,0,1-.78,2.2s-3.86,2.51-5.09,2.77-1.27,1.45.18,4.14,3.32,3.81,6.24,2.93,2.71-.26,2.9-2.44-.73-3.38.48-4.24S58.77,225.74,60,226s11,6.82,15.23,6.85,3.78-.57,6.4.52,8.2,6.57,9.64,5.76-2.54-5-5.37-8.49-6.88-8.19-8.82-8.71-8.77-1-9.88-2.9a4.22,4.22,0,0,1,1.61-1.65c1-.53,2.09-.46,3-1.2a3.81,3.81,0,0,1,2.2-.7,3,3,0,0,0-1.5-.59c-.66,0-2.1-2.59-5-1.93s-3.78,1.09-4.65,1.22A8.7,8.7,0,0,1,60.58,214Z" transform="translate(7.85 8.34)"/><path class="cls-2" d="M193.66,236.06s-2-2.58-4.53-2-4.22,1.51-5.73,1.38-7.68-1.38-9.7-7.56.76-15.74-4.41-17.88-19.39-4.91-35.64-3.27-17.63,1.26-12.47,5,13.47,4.91,16.24,4.91,8.81.63,11.21,2.64,3.75,6.67,7.41,13.35,8.2,14,7.95,16.24-3.15,5-6.42,6.17-6,1.76-5.41,2.9,4.16,2.64,5.67,3.78,3.53,3,4.41,1.76,2.9-5.29,6.67-6.42,5.92-.63,12.09-4.16,10.06-9.22,10.81-10.1,3.29.66,4.55,2.17,3,5.54,6.55,8.19,4.66,7.3,7.3,8.06,1.64-10.7,1.51-16.37-.63-8.44-2.52-11.21-4-3.4-5.67-2.27S195.67,235.94,193.66,236.06Z" transform="translate(7.85 8.34)"/><path class="cls-2" d="M127.09,87.35s.68-6.08-8.26-14S95.51,46.42,94.67,42.14s-4.81-11.85-5.09-13.75-3.71,2.41-1.84,8.8S92,50.49,92.28,54.42s3.14,17.86,13.6,25.42,15.42,11.56,14.63,13a5.21,5.21,0,0,1-6.15,1.73c-2.53-1.11-8.86-5.29-9.84-3.95s-.07,15.56,7.77,20.16,17.61,3.68,19.05,2.86-5.44-3.73-3.77-6.1,5.12-.2,7.71-1.5,8.21,1.06,9.72,1.48-.39-1.52-.39-1.52,12.07,3.94,17,5.73,17.69,2.68,21,4.62,33.71,6.72,35.58,4.63c1.17-1.31-4.46-1.43-9.32-2.18s-20.14-4.8-25.39-8.48-13.09-8.29-16.75-9.71S151.41,99,146.93,98.31A60.47,60.47,0,0,1,140,97s-1.93-4-4.07-5.78S127.09,87.35,127.09,87.35Z" transform="translate(7.85 8.34)"/><path class="cls-2" d="M86.68,159.07A16.37,16.37,0,0,1,85,149c.75-6.2,1.59-11.72-.22-15.56s-7.12-13.78-9-21.66-3.65-14.78-5-15.11-7.93,15.78-6.77,26.51,2.82,12.58,3.3,15.69-1.22,5.63-.93,12.24,2.64,13.75,2.8,15-1.48,3-3.07,4.13-5.78,2.48-7.75,3-3.7.56-3.49,1.61.57,4.1,2.21,5.55a9.78,9.78,0,0,0,5.44,2c1.35.12,2.78-4.45,4.42-4.72s9.18-1.94,10.56-1.72,4.82,3,10.17,1.84,7-.7,10.14.33,9.93,4.54,10.71,4.42-.79-3.43-2.33-4.91c-2.25-2.16-2.93-2.4-4.43-4.1s-5.22-4.38-6.7-4.26c0,0,1.87-3.38,4-4.62s4.3-3.37,5.46-3.6,3.09-.18,3.39-.57-4-1.18-4-1.18-1-2.85-6.5-3.2S88.46,158.56,86.68,159.07Z" transform="translate(7.85 8.34)"/><path class="cls-2" d="M269.55,186.76s-12.52-4.05-17.47-10.45-11.67-12.89-18-13.92-23.3-5-32.93-4.55-9.19,3.14-4,4.6c10.86,3,14.59,7.88,18.8,13s12.7,20.17,23.11,24.12,17.62,5.81,19.08,8.67a4.81,4.81,0,0,1-.31,5.07s-6.46,7.49-8.83,8.73-1.75,3.78,2.83,8.59,9.13,6.1,14.62,2.58,5.44-2.1,4.53-6.8-3.53-6.69-1.54-9.17,3.34-4.85,6-5,26.74,8,35.51,5.68,7.46-3.36,13.51-2.56,20.84,9.11,23.32,6.58-8.26-9.14-16.13-14.75S312.64,194,308.32,194s-18.68,3-22.11-.44a9.08,9.08,0,0,1,2.33-4.4c1.82-1.7,4-2.17,5.51-4.24a8,8,0,0,1,4.12-2.73,6.48,6.48,0,0,0-3.45-.38c-1.36.43-5.87-4.23-11.41-1.2s-7.14,4.45-8.86,5.22A18.29,18.29,0,0,1,269.55,186.76Z" transform="translate(7.85 8.34)"/><path class="cls-2" d="M120.42,281.38a10.44,10.44,0,0,1,4.06-1.34,4.85,4.85,0,0,1,2.62.72,3.46,3.46,0,0,0,1.59.46c.51,0-.05.31-.67.62s-1.23,1.64-2.31,2.52-3.8,5.19-6.53,6.53-6,1.65-7.76,2.62-3.34,3.8-4.16,4.11-3-2.78-3.8-3.86,1.49-2.16,3.08-2.31,3.29-1.59,2.42-2-6.53-8.69-7.5-11.26S99.34,266,97.65,263s-1.08-9.56-.41-9.82,4.47,5.55,6,7.56,2.3,3.14,2.6,3.19.74-1.44.74-2.93-.36-3.65,3.34,1.13,8,7.25,7.71,9.77a34.93,34.93,0,0,0,0,6.58,25.31,25.31,0,0,0,.62,3.6A10,10,0,0,0,120.42,281.38Z" transform="translate(7.85 8.34)"/><path class="cls-2" d="M278.28,89.78s-6.52-3.17-10.71-12.16-7.67-17.14-13.34-20.79S233.09,44.21,224,35.14s-17.3-16.87-19.35-16.21,2.53,27.93,13.08,41.41S232,74.95,235.3,78.73s3.07,8.61,9,17.29,15.08,16.32,16.37,17.9.49,5.24-.68,8.14-5.72,8.18-7.9,10.6-4.51,3.85-3.35,5.1,4.2,5,7.63,5.64,7.08-.91,9-1.89,0-8.33,2-10.08,10.76-10.3,12.8-11.18,9,0,15.25-6,8.85-6.81,13.94-8.06,17.2-2.2,18.15-3-3.93-4-7.25-4.67c-4.85-1-6-.79-9.41-1.82s-10.71-1.53-12.61-.12c0,0-.31-6.12,1.59-9.62s3-8.15,4.34-9.43,4-2.84,4.09-3.61-6.38,1.75-6.38,1.75-3.77-3-11.45,1.14S280.25,87.59,278.28,89.78Z" transform="translate(7.85 8.34)"/><path class="cls-2" d="M445.49,90.29q0,10-5.12,15.13t-14.13,5.17H415.18V71.31h11.94q8.63,0,13.5,4.87T445.49,90.29Zm-9.35.33q0-6.11-2.25-9a8,8,0,0,0-6.65-2.86h-3V103h2.31q4.95,0,7.29-3.05T436.14,90.62Z" transform="translate(7.85 8.34)"/><path class="cls-2" d="M482.23,71.31V96.5q0,6.71-3.79,10.67t-11.39,4q-7.21,0-11-3.79T452.2,96.56V71.31h9V95.79q0,4.18,1.51,5.94a5.59,5.59,0,0,0,4.48,1.76,5.5,5.5,0,0,0,4.59-1.84q1.46-1.84,1.46-5.91V71.31Z" transform="translate(7.85 8.34)"/><path class="cls-2" d="M521.6,110.58h-9V89.13q0-1.43.05-3.63t.11-4a10.74,10.74,0,0,1-1,1.24q-.66.69-1.37,1.35l-4.07,3.63-4.79-5.45,12.32-10.94h7.81Z" transform="translate(7.85 8.34)"/><path class="cls-2" d="M543.51,92.27H531.14V69.37h12.38V73.7h-7.12v4.52H543v4.33h-6.61v5.32h7.12Z" transform="translate(7.85 8.34)"/><path class="cls-2" d="M554.06,69.37q8.69,0,8.69,6.77a6.33,6.33,0,0,1-1,3.69A7.94,7.94,0,0,1,559,82.26l6,10H559.1l-4.62-8.66h-1.7v8.66h-5.26V69.37Zm-.16,4.23h-1.12v5.9h1.15q3.46,0,3.46-3.14a2.5,2.5,0,0,0-.85-2.08A4.24,4.24,0,0,0,553.9,73.61Z" transform="translate(7.85 8.34)"/><path class="cls-2" d="M603.45,110.58l-2.2-8.52H589.48l-2.2,8.52h-9.79l12-39.38h11.6l12.1,39.38Zm-4-16.06-2.15-8.58-.66-2.64q-.39-1.54-.74-3.08t-.58-2.7q-.22,1.16-.55,2.7T594,83.3q-.39,1.54-.6,2.64l-2.15,8.58Z" transform="translate(7.85 8.34)"/><path class="cls-2" d="M647.17,71.31V96.5q0,6.71-3.79,10.67t-11.39,4q-7.21,0-11-3.79t-3.82-10.78V71.31h9V95.79q0,4.18,1.51,5.94a5.59,5.59,0,0,0,4.48,1.76,5.5,5.5,0,0,0,4.59-1.84q1.46-1.84,1.46-5.91V71.31Z" transform="translate(7.85 8.34)"/><path class="cls-2" d="M690.34,80.28a8.84,8.84,0,0,1-2.23,6.19,11.94,11.94,0,0,1-5.69,3.44v.17q8.91,1.32,8.91,9.24a11.42,11.42,0,0,1-1.65,6.13,11,11,0,0,1-5,4.18,20.17,20.17,0,0,1-8.33,1.51,29.54,29.54,0,0,1-5.69-.49,24.51,24.51,0,0,1-5-1.6v-7.75a22.62,22.62,0,0,0,4.89,1.9,18.72,18.72,0,0,0,4.62.63q3.68,0,5.23-1.29a4.58,4.58,0,0,0,1.54-3.71,4.11,4.11,0,0,0-1.76-3.63Q678.41,94,673.68,94H671.2v-7h2.48q4.4,0,6.16-1.35A4.31,4.31,0,0,0,681.6,82q0-3.85-4.73-3.85a9.7,9.7,0,0,0-4.18.88,28.87,28.87,0,0,0-3.25,1.76l-3.74-6.21a20.4,20.4,0,0,1,5.36-2.78,21.94,21.94,0,0,1,7.12-1q5.61,0,8.88,2.47A8.31,8.31,0,0,1,690.34,80.28Z" transform="translate(7.85 8.34)"/><path class="cls-2" d="M726.59,110.58l-8.25-28.93h-.22q.11,1.32.22,3.22t.19,3.9q.08,2,.08,3.71v18.1h-8.14V71.31h12.21l8,27.72h.17l8.2-27.72h12.15v39.27h-8.42V92.27q0-1.65.06-3.6t.17-3.82q.11-1.87.17-3.19H743l-8.47,28.93Z" transform="translate(7.85 8.34)"/><path class="cls-2" d="M781.37,110.58l-2.2-8.52H767.4l-2.2,8.52h-9.79l12-39.38H779l12.1,39.38Zm-4-16.06-2.15-8.58-.66-2.64q-.39-1.54-.74-3.08t-.58-2.7q-.22,1.16-.55,2.7T772,83.3q-.39,1.54-.6,2.64l-2.15,8.58Z" transform="translate(7.85 8.34)"/><path class="cls-2" d="M810.63,110.58H792.81v-5l4.4-2V78.24l-4.4-1.93v-5h17.82v5l-4.4,1.93V103.6l4.4,2Z" transform="translate(7.85 8.34)"/><path class="cls-2" d="M462,202.07l-4.52-17.5H433.27l-4.52,17.5h-20.1l24.62-80.85H457.1l24.84,80.85Zm-8.24-33-4.4-17.62L448,146.06q-.79-3.16-1.53-6.32t-1.19-5.53q-.45,2.37-1.13,5.53t-1.47,6.32q-.79,3.16-1.24,5.42L437,169.1Z" transform="translate(7.85 8.34)"/><path class="cls-2" d="M521.69,135.78a13.49,13.49,0,0,0-12.25,7.06Q505.2,149.9,505.2,162q0,12.53,4.23,19.08t12.93,6.55a31.77,31.77,0,0,0,9-1.3,82.44,82.44,0,0,0,9.15-3.33v15.92a48,48,0,0,1-20.44,4.29q-11.52,0-19-5a30.18,30.18,0,0,1-11.24-14.34q-3.73-9.32-3.73-22a53.11,53.11,0,0,1,4.12-21.57,33.54,33.54,0,0,1,12-14.68q7.85-5.31,19-5.31a48.49,48.49,0,0,1,11.24,1.35,46.12,46.12,0,0,1,11,4.18L538,140.75a54.06,54.06,0,0,0-8-3.56A25,25,0,0,0,521.69,135.78Z" transform="translate(7.85 8.34)"/><path class="cls-2" d="M586.17,202.07H567.76V137H549.13V121.44H604.8V137H586.17Z" transform="translate(7.85 8.34)"/><path class="cls-2" d="M647.15,202.07H610.56V191.79l9-4.07V135.67l-9-4V121.44h36.59v10.28l-9,4v52.06l9,4.07Z" transform="translate(7.85 8.34)"/><path class="cls-2" d="M727.09,161.64q0,12.65-3.78,22a30,30,0,0,1-11.69,14.45q-7.91,5.08-20,5.08t-19.87-5.08a30.52,30.52,0,0,1-11.63-14.45q-3.84-9.37-3.84-22.13,0-19.31,8.7-30.32t26.76-11q12.08,0,19.93,5a29.82,29.82,0,0,1,11.63,14.34Q727.09,148.88,727.09,161.64Zm-51.49,0q0,12.42,3.9,19.14t12.14,6.72q8.58,0,12.31-6.72t3.73-19.14q0-12.42-3.73-19.2t-12.2-6.78q-8.47,0-12.31,6.78T675.6,161.64Z" transform="translate(7.85 8.34)"/><path class="cls-2" d="M809.42,202.07H786.27l-28.79-57H757q.23,4.29.56,10.16T758,166v36H741.32V121.44h23L793,177.57h.34q-.11-4.06-.39-9.71t-.4-10.5V121.44h16.83Z" transform="translate(7.85 8.34)"/><path class="cls-2" d="M428.33,223.81a17.8,17.8,0,0,1-1.15,6.68,9.11,9.11,0,0,1-3.55,4.39,11,11,0,0,1-6.07,1.54,10.84,10.84,0,0,1-6-1.54,9.27,9.27,0,0,1-3.53-4.39,17.65,17.65,0,0,1-1.17-6.72q0-5.86,2.64-9.2t8.12-3.34a11,11,0,0,1,6,1.53,9,9,0,0,1,3.53,4.35A17.77,17.77,0,0,1,428.33,223.81Zm-15.63,0a11.7,11.7,0,0,0,1.18,5.81,4.39,4.39,0,0,0,7.42,0,15.53,15.53,0,0,0,0-11.63,3.9,3.9,0,0,0-3.7-2.06,4,4,0,0,0-3.73,2.06A11.94,11.94,0,0,0,412.7,223.81Z" transform="translate(7.85 8.34)"/><path class="cls-2" d="M442.21,236.08H431.1V233l2.74-1.23v-15.8l-2.74-1.2v-3.12h11.1v3.12l-2.74,1.2v15.8l2.74,1.23Z" transform="translate(7.85 8.34)"/><path class="cls-2" d="M459.92,228.92a7.49,7.49,0,0,1-1,3.86,6.93,6.93,0,0,1-2.9,2.67,10.15,10.15,0,0,1-4.68,1,17.09,17.09,0,0,1-3.58-.34,12.76,12.76,0,0,1-3.13-1.13v-5.31a19.86,19.86,0,0,0,3.44,1.44,11.28,11.28,0,0,0,3.34.55,3.18,3.18,0,0,0,2.21-.65,2.11,2.11,0,0,0,.7-1.61,2.26,2.26,0,0,0-1-1.85,21.7,21.7,0,0,0-3.1-1.85,20.65,20.65,0,0,1-2.67-1.66,7.19,7.19,0,0,1-2-2.26,6.88,6.88,0,0,1-.77-3.44,6.38,6.38,0,0,1,2.21-5.17,9,9,0,0,1,5.95-1.85,14.3,14.3,0,0,1,3.6.45,17.71,17.71,0,0,1,3.32,1.23l-1.68,4.56a18.85,18.85,0,0,0-2.79-1.1,8.82,8.82,0,0,0-2.48-.38,2.78,2.78,0,0,0-1.9.57,1.86,1.86,0,0,0-.63,1.46,2.1,2.1,0,0,0,.39,1.29,4.5,4.5,0,0,0,1.3,1.08q.91.55,2.48,1.34a13.09,13.09,0,0,1,4,2.88A6.25,6.25,0,0,1,459.92,228.92Z" transform="translate(7.85 8.34)"/><path class="cls-2" d="M476.92,236.08H463.69V211.61h13.23v4.63h-7.61v4.83h7.06v4.63h-7.06v5.69h7.61Z" transform="translate(7.85 8.34)"/><path class="cls-2" d="M494.77,236.08l-1.37-5.31h-7.33l-1.37,5.31h-6.1l7.47-24.54h7.23l7.54,24.54Zm-2.5-10-1.34-5.35-.41-1.64q-.24-1-.46-1.92t-.36-1.68q-.14.72-.34,1.68t-.45,1.92q-.24,1-.38,1.64l-1.34,5.35Z" transform="translate(7.85 8.34)"/><path class="cls-2" d="M522,211.61v15.69a9.21,9.21,0,0,1-2.36,6.65q-2.36,2.47-7.09,2.47-4.49,0-6.87-2.36a9,9,0,0,1-2.38-6.72V211.61h5.62v15.25a5.69,5.69,0,0,0,.94,3.7,3.48,3.48,0,0,0,2.79,1.1,3.43,3.43,0,0,0,2.86-1.15,6,6,0,0,0,.91-3.68V211.61Z" transform="translate(7.85 8.34)"/><path class="cls-2" d="M545.69,236.08h-6.3L535,227.89l-4.42,8.19h-6.1l7.16-12.47-6.68-12H531l4,7.88,3.91-7.88h6.1l-6.68,12.2Z" transform="translate(7.85 8.34)"/><path class="cls-2" d="M575.09,223.44q0,6.2-3.19,9.42t-8.81,3.22h-6.89V211.61h7.44q5.38,0,8.41,3T575.09,223.44Zm-5.83.21q0-3.8-1.41-5.59a5,5,0,0,0-4.15-1.78h-1.88v15.08h1.44a5.35,5.35,0,0,0,4.54-1.9Q569.26,227.55,569.26,223.64Z" transform="translate(7.85 8.34)"/><path class="cls-2" d="M592.63,236.08H579.41V211.61h13.23v4.63H585v4.83h7.06v4.63H585v5.69h7.61Z" transform="translate(7.85 8.34)"/><path class="cls-2" d="M625.46,236.08h-7l-8.74-17.3h-.14q.07,1.3.17,3.08t.14,3.29v10.93H604.8V211.61h7l8.7,17h.1q0-1.23-.12-2.95t-.12-3.19v-10.9h5.11Z" transform="translate(7.85 8.34)"/><path class="cls-2" d="M651.26,223.81a17.78,17.78,0,0,1-1.15,6.68,9.11,9.11,0,0,1-3.55,4.39,11,11,0,0,1-6.07,1.54,10.84,10.84,0,0,1-6-1.54,9.27,9.27,0,0,1-3.53-4.39,17.64,17.64,0,0,1-1.17-6.72q0-5.86,2.64-9.2t8.12-3.34a11,11,0,0,1,6,1.53,9.05,9.05,0,0,1,3.53,4.35A17.75,17.75,0,0,1,651.26,223.81Zm-15.63,0a11.7,11.7,0,0,0,1.18,5.81,4.39,4.39,0,0,0,7.42,0,15.53,15.53,0,0,0,0-11.63,3.9,3.9,0,0,0-3.7-2.06A4,4,0,0,0,636.8,218,11.94,11.94,0,0,0,635.64,223.81Z" transform="translate(7.85 8.34)"/><path class="cls-2" d="M669.63,228.92a7.49,7.49,0,0,1-1,3.86,6.93,6.93,0,0,1-2.9,2.67,10.15,10.15,0,0,1-4.68,1,17.09,17.09,0,0,1-3.58-.34,12.76,12.76,0,0,1-3.13-1.13v-5.31a19.86,19.86,0,0,0,3.44,1.44,11.28,11.28,0,0,0,3.34.55,3.18,3.18,0,0,0,2.21-.65,2.11,2.11,0,0,0,.7-1.61,2.26,2.26,0,0,0-1-1.85,21.7,21.7,0,0,0-3.1-1.85,20.65,20.65,0,0,1-2.67-1.66,7.19,7.19,0,0,1-2-2.26,6.88,6.88,0,0,1-.77-3.44,6.38,6.38,0,0,1,2.21-5.17,9,9,0,0,1,5.95-1.85,14.3,14.3,0,0,1,3.6.45A17.71,17.71,0,0,1,669.6,213l-1.68,4.56a18.85,18.85,0,0,0-2.79-1.1,8.82,8.82,0,0,0-2.48-.38,2.78,2.78,0,0,0-1.9.57,1.86,1.86,0,0,0-.63,1.46,2.1,2.1,0,0,0,.39,1.29,4.5,4.5,0,0,0,1.3,1.08q.91.55,2.48,1.34a13.09,13.09,0,0,1,4,2.88A6.25,6.25,0,0,1,669.63,228.92Z" transform="translate(7.85 8.34)"/><path class="cls-2" d="M679.33,243.52a10.55,10.55,0,0,1-3-.38v-4.59q.48.14,1,.24a6.61,6.61,0,0,0,1.18.1,2.49,2.49,0,0,0,2.16-.94,6.11,6.11,0,0,0,.69-3.41V211.61h5.59V234.3a13,13,0,0,1-.94,5.43,6,6,0,0,1-2.66,2.9A8.58,8.58,0,0,1,679.33,243.52Z" transform="translate(7.85 8.34)"/><path class="cls-2" d="M705.71,236.08l-1.37-5.31H697l-1.37,5.31h-6.1L697,211.54h7.23l7.54,24.54Zm-2.5-10-1.34-5.35-.41-1.64q-.24-1-.46-1.92t-.36-1.68q-.14.72-.34,1.68t-.45,1.92q-.24,1-.38,1.64l-1.34,5.35Z" transform="translate(7.85 8.34)"/><path class="cls-2" d="M721.37,211.61q9.29,0,9.29,7.23a6.76,6.76,0,0,1-1.11,3.94,8.49,8.49,0,0,1-2.9,2.6L733,236.08h-6.27l-4.93-9.25H720v9.25h-5.62V211.61Zm-.17,4.52H720v6.3h1.23q3.7,0,3.7-3.36a2.67,2.67,0,0,0-.91-2.23A4.53,4.53,0,0,0,721.2,216.14Z" transform="translate(7.85 8.34)"/><path class="cls-2" d="M754.37,223.44q0,6.2-3.19,9.42t-8.81,3.22h-6.89V211.61h7.44q5.38,0,8.41,3T754.37,223.44Zm-5.83.21q0-3.8-1.41-5.59a5,5,0,0,0-4.15-1.78h-1.88v15.08h1.44a5.35,5.35,0,0,0,4.54-1.9Q748.55,227.55,748.55,223.64Z" transform="translate(7.85 8.34)"/><path class="cls-2" d="M768.25,236.08h-11.1V233l2.74-1.23v-15.8l-2.74-1.2v-3.12h11.1v3.12l-2.74,1.2v15.8l2.74,1.23Z" transform="translate(7.85 8.34)"/><path class="cls-2" d="M792.58,236.08h-7l-8.74-17.3h-.14q.07,1.3.17,3.08t.14,3.29v10.93h-5.07V211.61h7l8.7,17h.1q0-1.23-.12-2.95t-.12-3.19v-10.9h5.11Z" transform="translate(7.85 8.34)"/><path class="cls-2" d="M811.83,228.92a7.49,7.49,0,0,1-1,3.86,6.93,6.93,0,0,1-2.9,2.67,10.15,10.15,0,0,1-4.68,1,17.09,17.09,0,0,1-3.58-.34,12.76,12.76,0,0,1-3.13-1.13v-5.31a19.86,19.86,0,0,0,3.44,1.44,11.28,11.28,0,0,0,3.34.55,3.18,3.18,0,0,0,2.21-.65,2.11,2.11,0,0,0,.7-1.61,2.26,2.26,0,0,0-1-1.85,21.7,21.7,0,0,0-3.1-1.85A20.65,20.65,0,0,1,799.5,224a7.19,7.19,0,0,1-2-2.26,6.88,6.88,0,0,1-.77-3.44,6.38,6.38,0,0,1,2.21-5.17,9,9,0,0,1,5.95-1.85,14.3,14.3,0,0,1,3.6.45A17.71,17.71,0,0,1,811.8,213l-1.68,4.56a18.85,18.85,0,0,0-2.79-1.1,8.82,8.82,0,0,0-2.48-.38,2.78,2.78,0,0,0-1.9.57,1.86,1.86,0,0,0-.63,1.46,2.1,2.1,0,0,0,.39,1.29,4.5,4.5,0,0,0,1.3,1.08q.91.55,2.48,1.34a13.09,13.09,0,0,1,4,2.88A6.25,6.25,0,0,1,811.83,228.92Z" transform="translate(7.85 8.34)"/></svg>