<svg id="Calque_1" data-name="Calque 1" xmlns="http://www.w3.org/2000/svg" viewBox="0 0 867.82 328.87"><defs><style>.cls-1{fill:#eb5a2e;}.cls-2{fill:#fff;}</style></defs><title>banniere2019all</title><rect class="cls-1" width="867.82" height="328.87"/><path class="cls-2" d="M51,279a8.14,8.14,0,0,1-1.5-4.85c0-3.11,0-5.88-1.14-7.66s-4.42-6.32-5.86-10.08-2.78-7-3.45-7.12-2.87,8.31-1.58,13.52,2.22,6,2.67,7.52-.23,2.85.35,6.1a42,42,0,0,0,2.38,7.22c.16.62-.53,1.56-1.24,2.24a16.52,16.52,0,0,1-3.62,2c-.93.41-1.78.52-1.61,1a5,5,0,0,0,1.46,2.59,4.86,4.86,0,0,0,2.81.62c.67,0,1.07-2.38,1.87-2.62a43.72,43.72,0,0,1,5.09-1.55c.69,0,2.57,1.15,5.13.23a7.67,7.67,0,0,1,5-.51c1.61.3,5.2,1.58,5.57,1.47s-.61-1.64-1.47-2.27c-1.25-.92-1.6-1-2.46-1.73s-2.86-1.81-3.59-1.66a7.06,7.06,0,0,1,1.69-2.54c1-.75,1.9-1.95,2.45-2.14s1.51-.29,1.63-.5-2-.32-2-.32-.69-1.34-3.42-1.15S51.81,278.62,51,279Z" transform="translate(7.85 8.34)"/><path class="cls-2" d="M60.58,214s-5.11-3.32-6.52-6.75-3.6-7.12-6.31-8.35-9.83-5.07-14.22-6-4.53.26-2.37,1.55c4.49,2.67,5.55,5.26,6.79,8.05s3.13,10.46,7.31,13.48,7.18,4.72,7.47,6.16a2.2,2.2,0,0,1-.78,2.2s-3.86,2.51-5.09,2.77-1.27,1.45.18,4.14,3.32,3.81,6.24,2.93,2.71-.26,2.9-2.44-.73-3.38.48-4.24S58.77,225.74,60,226s11,6.82,15.23,6.85,3.78-.57,6.4.52,8.2,6.57,9.64,5.76-2.54-5-5.37-8.49-6.88-8.19-8.82-8.71-8.77-1-9.88-2.9a4.22,4.22,0,0,1,1.61-1.65c1-.53,2.09-.46,3-1.2a3.81,3.81,0,0,1,2.2-.7,3,3,0,0,0-1.5-.59c-.66,0-2.1-2.59-5-1.93s-3.78,1.09-4.65,1.22A8.7,8.7,0,0,1,60.58,214Z" transform="translate(7.85 8.34)"/><path class="cls-2" d="M193.66,236.06s-2-2.58-4.53-2-4.22,1.51-5.73,1.38-7.68-1.38-9.7-7.56.76-15.74-4.41-17.88-19.39-4.91-35.64-3.27-17.63,1.26-12.47,5,13.47,4.91,16.24,4.91,8.81.63,11.21,2.64,3.75,6.67,7.41,13.35,8.2,14,7.95,16.24-3.15,5-6.42,6.17-6,1.76-5.41,2.9,4.16,2.64,5.67,3.78,3.53,3,4.41,1.76,2.9-5.29,6.67-6.42,5.92-.63,12.09-4.16,10.06-9.22,10.81-10.1,3.29.66,4.55,2.17,3,5.54,6.55,8.19,4.66,7.3,7.3,8.06,1.64-10.7,1.51-16.37-.63-8.44-2.52-11.21-4-3.4-5.67-2.27S195.67,235.94,193.66,236.06Z" transform="translate(7.85 8.34)"/><path class="cls-2" d="M127.09,87.35s.68-6.08-8.26-14S95.51,46.42,94.67,42.14s-4.81-11.85-5.09-13.75-3.71,2.41-1.84,8.8S92,50.49,92.28,54.42s3.14,17.86,13.6,25.42,15.42,11.56,14.63,13a5.21,5.21,0,0,1-6.15,1.73c-2.53-1.11-8.86-5.29-9.84-3.95s-.07,15.56,7.77,20.16,17.61,3.68,19.05,2.86-5.44-3.73-3.77-6.1,5.12-.2,7.71-1.5,8.21,1.06,9.72,1.48-.39-1.52-.39-1.52,12.07,3.94,17,5.73,17.69,2.68,21,4.62,33.71,6.72,35.58,4.63c1.17-1.31-4.46-1.43-9.32-2.18s-20.14-4.8-25.39-8.48-13.09-8.29-16.75-9.71S151.41,99,146.93,98.31A60.47,60.47,0,0,1,140,97s-1.93-4-4.07-5.78S127.09,87.35,127.09,87.35Z" transform="translate(7.85 8.34)"/><path class="cls-2" d="M86.68,159.07A16.37,16.37,0,0,1,85,149c.75-6.2,1.59-11.72-.22-15.56s-7.12-13.78-9-21.66-3.65-14.78-5-15.11-7.93,15.78-6.77,26.51,2.82,12.58,3.3,15.69-1.22,5.63-.93,12.24,2.64,13.75,2.8,15-1.48,3-3.07,4.13-5.78,2.48-7.75,3-3.7.56-3.49,1.61.57,4.1,2.21,5.55a9.78,9.78,0,0,0,5.44,2c1.35.12,2.78-4.45,4.42-4.72s9.18-1.94,10.56-1.72,4.82,3,10.17,1.84,7-.7,10.14.33,9.93,4.54,10.71,4.42-.79-3.43-2.33-4.91c-2.25-2.16-2.93-2.4-4.43-4.1s-5.22-4.38-6.7-4.26c0,0,1.87-3.38,4-4.62s4.3-3.37,5.46-3.6,3.09-.18,3.39-.57-4-1.18-4-1.18-1-2.85-6.5-3.2S88.46,158.56,86.68,159.07Z" transform="translate(7.85 8.34)"/><path class="cls-2" d="M269.55,186.76s-12.52-4.05-17.47-10.45-11.67-12.89-18-13.92-23.3-5-32.93-4.55-9.19,3.14-4,4.6c10.86,3,14.59,7.88,18.8,13s12.7,20.17,23.11,24.12,17.62,5.81,19.08,8.67a4.81,4.81,0,0,1-.31,5.07s-6.46,7.49-8.83,8.73-1.75,3.78,2.83,8.59,9.13,6.1,14.62,2.58,5.44-2.1,4.53-6.8-3.53-6.69-1.54-9.17,3.34-4.85,6-5,26.74,8,35.51,5.68,7.46-3.36,13.51-2.56,20.84,9.11,23.32,6.58-8.26-9.14-16.13-14.75S312.64,194,308.32,194s-18.68,3-22.11-.44a9.08,9.08,0,0,1,2.33-4.4c1.82-1.7,4-2.17,5.51-4.24a8,8,0,0,1,4.12-2.73,6.48,6.48,0,0,0-3.45-.38c-1.36.43-5.87-4.23-11.41-1.2s-7.14,4.45-8.86,5.22A18.29,18.29,0,0,1,269.55,186.76Z" transform="translate(7.85 8.34)"/><path class="cls-2" d="M120.42,281.38a10.44,10.44,0,0,1,4.06-1.34,4.85,4.85,0,0,1,2.62.72,3.46,3.46,0,0,0,1.59.46c.51,0-.05.31-.67.62s-1.23,1.64-2.31,2.52-3.8,5.19-6.53,6.53-6,1.65-7.76,2.62-3.34,3.8-4.16,4.11-3-2.78-3.8-3.86,1.49-2.16,3.08-2.31,3.29-1.59,2.42-2-6.53-8.69-7.5-11.26S99.34,266,97.65,263s-1.08-9.56-.41-9.82,4.47,5.55,6,7.56,2.3,3.14,2.6,3.19.74-1.44.74-2.93-.36-3.65,3.34,1.13,8,7.25,7.71,9.77a34.93,34.93,0,0,0,0,6.58,25.31,25.31,0,0,0,.62,3.6A10,10,0,0,0,120.42,281.38Z" transform="translate(7.85 8.34)"/><path class="cls-2" d="M278.28,89.78s-6.52-3.17-10.71-12.16-7.67-17.14-13.34-20.79S233.09,44.21,224,35.14s-17.3-16.87-19.35-16.21,2.53,27.93,13.08,41.41S232,74.95,235.3,78.73s3.07,8.61,9,17.29,15.08,16.32,16.37,17.9.49,5.24-.68,8.14-5.72,8.18-7.9,10.6-4.51,3.85-3.35,5.1,4.2,5,7.63,5.64,7.08-.91,9-1.89,0-8.33,2-10.08,10.76-10.3,12.8-11.18,9,0,15.25-6,8.85-6.81,13.94-8.06,17.2-2.2,18.15-3-3.93-4-7.25-4.67c-4.85-1-6-.79-9.41-1.82s-10.71-1.53-12.61-.12c0,0-.31-6.12,1.59-9.62s3-8.15,4.34-9.43,4-2.84,4.09-3.61-6.38,1.75-6.38,1.75-3.77-3-11.45,1.14S280.25,87.59,278.28,89.78Z" transform="translate(7.85 8.34)"/><path class="cls-2" d="M437.58,78.88l-11.21,34.37h-9.62L405.64,78.88h8.95l5.3,18.77q.26.87.59,2.36t.67,3a24,24,0,0,1,.44,2.55q.1-1,.41-2.53t.67-3q.36-1.47.62-2.38l5.35-18.82Z" transform="translate(7.85 8.34)"/><path class="cls-2" d="M471.93,96a23.57,23.57,0,0,1-1.72,9.39,13,13,0,0,1-5.32,6.16,17.42,17.42,0,0,1-9.1,2.17,17.14,17.14,0,0,1-9.05-2.17,13.22,13.22,0,0,1-5.3-6.16A23.39,23.39,0,0,1,439.68,96q0-8.23,4-12.92t12.19-4.69a17.43,17.43,0,0,1,9.08,2.14,12.93,12.93,0,0,1,5.3,6.11A23.53,23.53,0,0,1,471.93,96Zm-23.45,0q0,5.3,1.77,8.16a6.84,6.84,0,0,0,11.13,0q1.7-2.86,1.7-8.16t-1.7-8.18a5.94,5.94,0,0,0-5.55-2.89,6.06,6.06,0,0,0-5.61,2.89Q448.48,90.73,448.48,96Z" transform="translate(7.85 8.34)"/><path class="cls-2" d="M493.48,113.25l-7.71-25.32h-.21q.1,1.16.21,2.82t.18,3.42q.08,1.76.08,3.25v15.84h-7.61V78.88h11.42l7.51,24.26h.15l7.66-24.26h11.37v34.37h-7.87v-16q0-1.44.05-3.15t.15-3.35q.1-1.64.15-2.79h-.21l-7.92,25.32Z" transform="translate(7.85 8.34)"/><path class="cls-2" d="M553.55,113.25h-8.43V94.48q0-1.25.05-3.18t.1-3.51a9.57,9.57,0,0,1-1,1.08q-.62.6-1.29,1.18l-3.81,3.18-4.47-4.77,11.52-9.58h7.3Z" transform="translate(7.85 8.34)"/><path class="cls-2" d="M562.71,109.64a3.8,3.8,0,0,1,1.31-3.25,5.45,5.45,0,0,1,3.37-1,5.28,5.28,0,0,1,3.27,1,3.8,3.8,0,0,1,1.31,3.25,3.76,3.76,0,0,1-1.31,3.18,5.19,5.19,0,0,1-3.27,1,5.38,5.38,0,0,1-3.34-1A3.72,3.72,0,0,1,562.71,109.64Z" transform="translate(7.85 8.34)"/><path class="cls-2" d="M578.39,78.88h11.31q7,0,10.36,2.07a7.12,7.12,0,0,1,3.37,6.55,7.86,7.86,0,0,1-1.54,5A6.72,6.72,0,0,1,598,95v.24a9.2,9.2,0,0,1,4.37,2.46q1.75,1.78,1.75,5.54a8.8,8.8,0,0,1-3.42,7.34q-3.42,2.67-9.39,2.67h-13Zm8.43,13.53h3.24a5.48,5.48,0,0,0,3.68-1,3.57,3.57,0,0,0,1.11-2.82q0-3.47-5-3.47h-3Zm0,6.07v8.38h3.75a5.26,5.26,0,0,0,3.81-1.13,4.26,4.26,0,0,0,1.13-3.15,3.91,3.91,0,0,0-1.18-3,5.64,5.64,0,0,0-4-1.13Z" transform="translate(7.85 8.34)"/><path class="cls-2" d="M624.89,113.25H608.22v-4.38l4.11-1.73V84.95l-4.11-1.69V78.88h16.66v4.38l-4.11,1.69v22.19l4.11,1.73Z" transform="translate(7.85 8.34)"/><path class="cls-2" d="M651.47,103.19a10,10,0,0,1-1.49,5.42,10.16,10.16,0,0,1-4.35,3.75,16.13,16.13,0,0,1-7,1.37,27.4,27.4,0,0,1-5.37-.48,20,20,0,0,1-4.71-1.59V104.2a31,31,0,0,0,5.17,2,18,18,0,0,0,5,.77,5,5,0,0,0,3.32-.91,2.88,2.88,0,0,0,1.05-2.26,3.13,3.13,0,0,0-1.47-2.6,33.15,33.15,0,0,0-4.65-2.6,31.4,31.4,0,0,1-4-2.33,10.35,10.35,0,0,1-3-3.18,9.18,9.18,0,0,1-1.16-4.84A8.71,8.71,0,0,1,632.11,81q3.32-2.6,8.92-2.6a22.78,22.78,0,0,1,5.4.63,27.71,27.71,0,0,1,5,1.73l-2.52,6.4a29.64,29.64,0,0,0-4.19-1.54,14.07,14.07,0,0,0-3.73-.53,4.37,4.37,0,0,0-2.85.79,2.54,2.54,0,0,0-1,2,2.81,2.81,0,0,0,.59,1.81,6.66,6.66,0,0,0,2,1.52q1.36.77,3.73,1.88a19.64,19.64,0,0,1,5.94,4A8.43,8.43,0,0,1,651.47,103.19Z" transform="translate(7.85 8.34)"/><path class="cls-2" d="M689.89,86.73a7.45,7.45,0,0,1-2.08,5.42,11.33,11.33,0,0,1-5.32,3v.14q8.33,1.16,8.33,8.09a9.51,9.51,0,0,1-1.54,5.37,10.12,10.12,0,0,1-4.65,3.66,20,20,0,0,1-7.79,1.32,29.47,29.47,0,0,1-5.32-.43,24.09,24.09,0,0,1-4.71-1.4v-6.79a22,22,0,0,0,4.58,1.66,18.6,18.6,0,0,0,4.32.55q3.44,0,4.89-1.13A3.89,3.89,0,0,0,682,103a3.53,3.53,0,0,0-1.65-3.18q-1.65-1.06-6.07-1.06H672V92.55h2.31q4.11,0,5.76-1.18a3.69,3.69,0,0,0,1.65-3.15q0-3.37-4.42-3.37a9.6,9.6,0,0,0-3.91.77,27.66,27.66,0,0,0-3,1.54l-3.5-5.44a19.57,19.57,0,0,1,5-2.43,21.81,21.81,0,0,1,6.66-.89q5.25,0,8.31,2.17A7.1,7.1,0,0,1,689.89,86.73Z" transform="translate(7.85 8.34)"/><path class="cls-2" d="M695.5,109.64a3.8,3.8,0,0,1,1.31-3.25,5.45,5.45,0,0,1,3.37-1,5.28,5.28,0,0,1,3.27,1,3.8,3.8,0,0,1,1.31,3.25,3.76,3.76,0,0,1-1.31,3.18,5.19,5.19,0,0,1-3.27,1,5.38,5.38,0,0,1-3.34-1A3.72,3.72,0,0,1,695.5,109.64Z" transform="translate(7.85 8.34)"/><path class="cls-2" d="M738.08,113.25l-7.71-25.32h-.21q.1,1.16.21,2.82t.18,3.42q.08,1.76.08,3.25v15.84H723V78.88h11.42l7.51,24.26h.15l7.66-24.26h11.37v34.37h-7.87v-16q0-1.44.05-3.15t.15-3.35q.1-1.64.15-2.79h-.21l-7.92,25.32Z" transform="translate(7.85 8.34)"/><path class="cls-2" d="M789.31,113.25l-2.06-7.46h-11l-2.06,7.46H765l11.21-34.47h10.85l11.32,34.47ZM785.55,99.2l-2-7.51-.62-2.31q-.36-1.35-.69-2.7t-.54-2.36q-.21,1-.51,2.36t-.67,2.7q-.36,1.35-.57,2.31l-2,7.51Z" transform="translate(7.85 8.34)"/><path class="cls-2" d="M816.67,113.25H800v-4.38l4.11-1.73V84.95L800,83.26V78.88h16.66v4.38l-4.11,1.69v22.19l4.11,1.73Z" transform="translate(7.85 8.34)"/><path class="cls-2" d="M462,202.07l-4.52-17.5H433.27l-4.52,17.5h-20.1l24.62-80.85H457.1l24.84,80.85Zm-8.24-33-4.4-17.62L448,146.06q-.79-3.16-1.53-6.32t-1.19-5.53q-.45,2.37-1.13,5.53t-1.47,6.32q-.79,3.16-1.24,5.42L437,169.1Z" transform="translate(7.85 8.34)"/><path class="cls-2" d="M552.4,202.07H531.63l-16.49-32.18-6.1,4.29v27.89H490.52V121.44H509v36.14a43.76,43.76,0,0,1,2.71-5q1.58-2.54,3.16-5.14l17.39-26h20.21l-24.17,35.91Z" transform="translate(7.85 8.34)"/><path class="cls-2" d="M591.47,202.07H573.07V137H554.44V121.44h55.67V137H591.47Z" transform="translate(7.85 8.34)"/><path class="cls-2" d="M652.45,202.07H615.87V191.79l9-4.07V135.67l-9-4V121.44h36.59v10.28l-9,4v52.06l9,4.07Z" transform="translate(7.85 8.34)"/><path class="cls-2" d="M732.4,161.64q0,12.65-3.78,22a30,30,0,0,1-11.69,14.45q-7.91,5.08-20,5.08t-19.87-5.08a30.52,30.52,0,0,1-11.63-14.45q-3.84-9.37-3.84-22.13,0-19.31,8.7-30.32t26.76-11q12.08,0,19.93,5a29.82,29.82,0,0,1,11.63,14.34Q732.4,148.88,732.4,161.64Zm-51.49,0q0,12.42,3.9,19.14t12.14,6.72q8.58,0,12.31-6.72T713,161.64q0-12.42-3.73-19.2t-12.2-6.78q-8.47,0-12.31,6.78T680.91,161.64Z" transform="translate(7.85 8.34)"/><path class="cls-2" d="M814.72,202.07H791.57l-28.79-57h-.45q.23,4.29.56,10.16t.45,10.84v36H746.63V121.44h23l28.68,56.12h.34q-.11-4.06-.39-9.71t-.4-10.5V121.44h16.83Z" transform="translate(7.85 8.34)"/><path class="cls-2" d="M420.87,227.58a7.07,7.07,0,0,1-.94,3.64,6.55,6.55,0,0,1-2.74,2.53,9.6,9.6,0,0,1-4.42.92,16.15,16.15,0,0,1-3.38-.32,12,12,0,0,1-3-1.07v-5a18.86,18.86,0,0,0,3.25,1.36,10.64,10.64,0,0,0,3.16.52,3,3,0,0,0,2.09-.62,2,2,0,0,0,.66-1.52,2.14,2.14,0,0,0-.92-1.75,20.47,20.47,0,0,0-2.93-1.75,19.52,19.52,0,0,1-2.53-1.57,6.78,6.78,0,0,1-1.89-2.14,6.52,6.52,0,0,1-.73-3.25,6,6,0,0,1,2.09-4.89,8.47,8.47,0,0,1,5.62-1.75,13.48,13.48,0,0,1,3.4.42,16.68,16.68,0,0,1,3.14,1.17l-1.59,4.31a17.9,17.9,0,0,0-2.64-1,8.33,8.33,0,0,0-2.35-.36,2.63,2.63,0,0,0-1.8.53,1.76,1.76,0,0,0-.6,1.38,2,2,0,0,0,.37,1.21,4.25,4.25,0,0,0,1.23,1q.86.52,2.35,1.26a12.37,12.37,0,0,1,3.74,2.72A5.91,5.91,0,0,1,420.87,227.58Z" transform="translate(7.85 8.34)"/><path class="cls-2" d="M433.23,234.34H428V215.69h-5.34v-4.47h16v4.47h-5.34Z" transform="translate(7.85 8.34)"/><path class="cls-2" d="M459.24,211.22v14.83a8.69,8.69,0,0,1-2.23,6.28q-2.23,2.33-6.7,2.33-4.24,0-6.49-2.23a8.55,8.55,0,0,1-2.25-6.35V211.22h5.31v14.41a5.38,5.38,0,0,0,.89,3.5,3.29,3.29,0,0,0,2.64,1,3.24,3.24,0,0,0,2.7-1.08,5.64,5.64,0,0,0,.86-3.48V211.22Z" transform="translate(7.85 8.34)"/><path class="cls-2" d="M483.56,234.34h-6.64L468.66,218h-.13q.06,1.23.16,2.91t.13,3.11v10.33H464V211.22h6.61l8.22,16.09h.1q0-1.17-.11-2.79t-.11-3v-10.3h4.83Z" transform="translate(7.85 8.34)"/><path class="cls-2" d="M506.32,222.39q0,5.86-3,8.91t-8.32,3h-6.51V211.22h7q5.08,0,7.95,2.87T506.32,222.39Zm-5.5.19q0-3.59-1.33-5.28a4.69,4.69,0,0,0-3.92-1.68h-1.78v14.25h1.36a5.06,5.06,0,0,0,4.29-1.8A9,9,0,0,0,500.82,222.59Z" transform="translate(7.85 8.34)"/><path class="cls-2" d="M522.9,234.34H510.4V211.22h12.5v4.37h-7.19v4.57h6.67v4.37h-6.67v5.38h7.19Z" transform="translate(7.85 8.34)"/><path class="cls-2" d="M552.24,222.39q0,5.86-3,8.91t-8.32,3h-6.51V211.22h7q5.08,0,7.95,2.87T552.24,222.39Zm-5.5.19q0-3.59-1.33-5.28a4.69,4.69,0,0,0-3.92-1.68H539.7v14.25h1.36a5.06,5.06,0,0,0,4.29-1.8A9,9,0,0,0,546.73,222.59Z" transform="translate(7.85 8.34)"/><path class="cls-2" d="M568.81,234.34h-12.5V211.22h12.5v4.37h-7.19v4.57h6.67v4.37h-6.67v5.38h7.19Z" transform="translate(7.85 8.34)"/><path class="cls-2" d="M579.47,211.22q8.77,0,8.78,6.83a6.39,6.39,0,0,1-1.05,3.72,8,8,0,0,1-2.74,2.46l6,10.1h-5.93l-4.66-8.74h-1.72v8.74h-5.31V211.22Zm-.16,4.27h-1.13v6h1.17q3.5,0,3.5-3.17a2.52,2.52,0,0,0-.86-2.1A4.28,4.28,0,0,0,579.31,215.5Z" transform="translate(7.85 8.34)"/><path class="cls-2" d="M608.77,221.1h8.81v12.21a22.72,22.72,0,0,1-3.77,1,24.2,24.2,0,0,1-4.26.36,9.38,9.38,0,0,1-7.46-3.06q-2.67-3.06-2.67-8.89a14.19,14.19,0,0,1,1.29-6.28,9.33,9.33,0,0,1,3.8-4.1,12.15,12.15,0,0,1,6.14-1.44,15.78,15.78,0,0,1,3.63.4,14.63,14.63,0,0,1,3,1.05l-1.65,4.24a11.44,11.44,0,0,0-2.35-.92,9.88,9.88,0,0,0-2.61-.34,5,5,0,0,0-4.35,2.06,9.17,9.17,0,0,0-1.47,5.46,10,10,0,0,0,1.25,5.39,4.2,4.2,0,0,0,3.81,2,11,11,0,0,0,1.36-.08,9.74,9.74,0,0,0,1.17-.21v-4.5h-3.69Z" transform="translate(7.85 8.34)"/><path class="cls-2" d="M635,234.34l-1.29-5h-6.93l-1.3,5h-5.76l7.06-23.19h6.83l7.12,23.19Zm-2.36-9.46-1.26-5.05-.39-1.55q-.23-.91-.44-1.81t-.34-1.59q-.13.68-.32,1.59t-.42,1.81q-.23.91-.36,1.55l-1.26,5.05Z" transform="translate(7.85 8.34)"/><path class="cls-2" d="M649.8,211.22q8.77,0,8.78,6.83a6.39,6.39,0,0,1-1.05,3.72,8,8,0,0,1-2.74,2.46l6,10.1h-5.93l-4.66-8.74H648.5v8.74h-5.31V211.22Zm-.16,4.27H648.5v6h1.17q3.5,0,3.5-3.17a2.52,2.52,0,0,0-.86-2.1A4.28,4.28,0,0,0,649.64,215.5Z" transform="translate(7.85 8.34)"/><path class="cls-2" d="M671.95,234.34h-5.28V215.69h-5.34v-4.47h16v4.47h-5.34Z" transform="translate(7.85 8.34)"/><path class="cls-2" d="M692.9,234.34H680.4V211.22h12.5v4.37h-7.19v4.57h6.67v4.37h-6.67v5.38h7.19Z" transform="translate(7.85 8.34)"/><path class="cls-2" d="M716.47,234.34h-6.64L701.58,218h-.13q.06,1.23.16,2.91t.13,3.11v10.33h-4.79V211.22h6.61l8.22,16.09h.1q0-1.17-.11-2.79t-.11-3v-10.3h4.83Z" transform="translate(7.85 8.34)"/><path class="cls-2" d="M739,211.22,732,234.34h-6.06l-7-23.12h5.63l3.33,12.63q.16.58.37,1.59t.42,2a17,17,0,0,1,.28,1.72q.06-.68.26-1.7t.42-2q.23-1,.39-1.6l3.37-12.66Z" transform="translate(7.85 8.34)"/><path class="cls-2" d="M760.67,222.75a16.82,16.82,0,0,1-1.08,6.31,8.6,8.6,0,0,1-3.35,4.14,10.41,10.41,0,0,1-5.73,1.46,10.24,10.24,0,0,1-5.7-1.46,8.75,8.75,0,0,1-3.34-4.14,16.7,16.7,0,0,1-1.1-6.35q0-5.54,2.49-8.69t7.67-3.16a10.42,10.42,0,0,1,5.71,1.44,8.55,8.55,0,0,1,3.34,4.11A16.79,16.79,0,0,1,760.67,222.75Zm-15.77-16a2.18,2.18,0,0,1,.65-1.73,2.68,2.68,0,0,1,3.32,0,2.16,2.16,0,0,1,.66,1.72,2.11,2.11,0,0,1-.66,1.7,2.48,2.48,0,0,1-1.67.57,2.42,2.42,0,0,1-1.65-.57A2.14,2.14,0,0,1,744.9,206.79Zm1,16a11.05,11.05,0,0,0,1.12,5.49,4.15,4.15,0,0,0,7,0,14.68,14.68,0,0,0,0-11,3.68,3.68,0,0,0-3.5-1.94,3.75,3.75,0,0,0-3.53,1.94A11.29,11.29,0,0,0,745.91,222.75Zm5.6-16a2.15,2.15,0,0,1,.66-1.73,2.48,2.48,0,0,1,1.67-.57,2.44,2.44,0,0,1,1.67.58,2.16,2.16,0,0,1,.66,1.72,2.11,2.11,0,0,1-.66,1.7,2.74,2.74,0,0,1-3.34,0A2.11,2.11,0,0,1,751.51,206.79Z" transform="translate(7.85 8.34)"/><path class="cls-2" d="M773.27,221.1h8.81v12.21a22.72,22.72,0,0,1-3.77,1,24.2,24.2,0,0,1-4.26.36,9.38,9.38,0,0,1-7.46-3.06q-2.67-3.06-2.67-8.89a14.19,14.19,0,0,1,1.29-6.28,9.33,9.33,0,0,1,3.8-4.1,12.15,12.15,0,0,1,6.14-1.44,15.78,15.78,0,0,1,3.63.4,14.63,14.63,0,0,1,3,1.05l-1.65,4.24a11.44,11.44,0,0,0-2.35-.92,9.88,9.88,0,0,0-2.61-.34,5,5,0,0,0-4.35,2.06,9.17,9.17,0,0,0-1.47,5.46,10,10,0,0,0,1.25,5.39,4.2,4.2,0,0,0,3.81,2,11,11,0,0,0,1.36-.08,9.74,9.74,0,0,0,1.17-.21v-4.5h-3.69Z" transform="translate(7.85 8.34)"/><path class="cls-2" d="M799.17,234.34h-12.5V211.22h12.5v4.37H792v4.57h6.67v4.37H792v5.38h7.19Z" transform="translate(7.85 8.34)"/><path class="cls-2" d="M803.22,234.34V211.22h5.31v18.72h8v4.4Z" transform="translate(7.85 8.34)"/></svg>