<?xml version="1.0" encoding="utf-8"?>
<!-- Generator: Adobe Illustrator 16.0.4, SVG Export Plug-In . SVG Version: 6.00 Build 0)  -->
<!DOCTYPE svg PUBLIC "-//W3C//DTD SVG 1.1//EN" "http://www.w3.org/Graphics/SVG/1.1/DTD/svg11.dtd">
<svg version="1.1" id="Ebene_1" xmlns="http://www.w3.org/2000/svg" xmlns:xlink="http://www.w3.org/1999/xlink" x="0px" y="0px"
	 width="118.112px" height="88.75px" viewBox="0 0 118.112 88.75" enable-background="new 0 0 118.112 88.75" xml:space="preserve">
<g>
	<path fill-rule="evenodd" clip-rule="evenodd" fill="#006EAB" d="M37.174,72.701h-3.734V58.113c0-0.461-0.216-0.674-0.678-0.674
		h-1.596v-3.23h3.438c1.68,0,2.461,0.715,2.461,2.246v1.154c0,0.238-0.007,0.459-0.018,0.645c1.061-2.645,3.191-4.262,5.676-4.262
		c0.213,0,0.586,0.031,0.602,0.033l0.107,0.006l-0.016,3.688l-0.131-0.016c-0.004,0-0.395-0.049-0.672-0.049
		c-2.26,0-4.227,1.654-5.012,4.211c-0.288,0.928-0.428,1.99-0.428,3.25V72.701L37.174,72.701z"/>
	<path fill-rule="evenodd" clip-rule="evenodd" fill="#006EAB" d="M51.83,73.137c-4.96,0-8.164-3.801-8.164-9.684
		c0-5.787,3.367-9.678,8.381-9.678c2.214,0,3.654,0.779,4.471,1.434c0.541,0.432,0.886,0.865,1.076,1.141
		c-0.018-0.223-0.035-0.527-0.035-0.869v-4.582c0-0.461-0.215-0.676-0.677-0.676h-1.597v-3.23h3.582c1.68,0,2.427,0.748,2.427,2.427
		v19.378c0,0.461,0.214,0.676,0.677,0.676h1.596v3.229h-3.472c-1.563,0-2.356-0.693-2.356-2.064c0-0.223,0.007-0.42,0.016-0.578
		C57.232,70.896,55.504,73.137,51.83,73.137L51.83,73.137z M52.588,57.043c-3.012,0-5.115,2.635-5.115,6.41
		c0,3.84,2.026,6.416,5.043,6.416c2.49,0,5.152-1.693,5.152-6.447C57.668,60.348,56.078,57.043,52.588,57.043L52.588,57.043z"/>
	<path fill-rule="evenodd" clip-rule="evenodd" fill="#52AE32" d="M79.01,72.701H70c-1.637,0-2.367-0.729-2.367-2.365v-19.43
		c0-0.451-0.209-0.658-0.654-0.658H65.35v-3.256h3.666c1.637,0,2.367,0.731,2.367,2.366v19.431c0,0.428,0.227,0.656,0.656,0.656
		h5.248c0.43,0,0.656-0.229,0.656-0.656V67.09h3.434v3.246C81.377,71.973,80.647,72.701,79.01,72.701L79.01,72.701z"/>
	<path fill-rule="evenodd" clip-rule="evenodd" fill="#006EAB" d="M11.232,72.701H0v-3.256h1.689c0.447,0,0.654-0.209,0.654-0.654
		V50.979c0-0.41-0.178-0.617-0.558-0.65L0,50.33v-3.338h11.016c4.566,0,7.516,2.594,7.516,6.613c0,2.436-1.145,4.479-3.07,5.502
		c2.486,0.824,4.08,3.242,4.08,6.225C19.541,69.811,16.279,72.701,11.232,72.701L11.232,72.701z M6.189,60.902l0.015,8.469
		l5.208-0.006c2.576,0,4.178-1.615,4.178-4.215c0-2.541-1.678-4.248-4.177-4.248H6.189L6.189,60.902z M6.189,57.709h4.863
		c2.131,0,3.562-1.502,3.562-3.742c0-2.244-1.393-3.637-3.635-3.637H6.189V57.709L6.189,57.709z"/>
	<path fill-rule="evenodd" clip-rule="evenodd" fill="#52AE32" d="M97.167,72.701h-3.643V57.66h-2.213v-2.975h2.213v-0.969
		c0-6.07,4.775-6.725,6.83-6.725c0.775,0,1.301,0.104,1.322,0.108l0.094,0.019v3.154l-0.139-0.025
		c-0.004-0.002-0.35-0.07-0.855-0.07c-1.646,0-3.609,0.627-3.609,3.609v0.898h3.65v2.975h-3.65V72.701L97.167,72.701z"/>
	<path fill-rule="evenodd" clip-rule="evenodd" fill="#52AE32" d="M110.86,73.123c-5.547,0-9.572-4.068-9.572-9.674
		c0-5.695,3.721-9.676,9.045-9.676c4.652,0,7.779,3.484,7.779,8.664c0,0.471-0.102,1.416-0.105,1.459L117.995,64h-12.951
		c0.277,4.047,3.195,5.859,5.992,5.859c2.975,0,5.098-2.072,5.119-2.092l0.107-0.107l1.6,2.695l-0.064,0.064
		C117.771,70.447,115.077,73.123,110.86,73.123L110.86,73.123z M105.202,61.203h9.156c-0.139-2.688-1.723-4.416-4.061-4.416
		C107.671,56.787,105.729,58.475,105.202,61.203L105.202,61.203z"/>
	<path fill-rule="evenodd" clip-rule="evenodd" fill="#52AE32" d="M43.821,32.886c25.601-1.71,41.469,2.091,57.105,7.508
		c-0.643-0.1-0.984-0.102-1.529-0.195c0.303,0.152,0.795,0.344,1.113,0.474c-1.039-0.128-2.416-0.348-3.562-0.529
		c0.328,0.193,3.148,0.956,4.096,1.281c-0.486,0.008-0.938,0.08-1.113,0.072c0.533,0.122,1.02,0.32,1.51,0.5
		c-0.721-0.055-1.219-0.052-1.686-0.045c1.084,0.445,2.301,0.92,3.568,1.381c-2.551-0.231-18.787-5.361-40.747-6.613
		c-17.306-0.99-42.198,3.068-58.973,7.748l-0.057-0.198c9.059-2.896,17.266-6.23,47.246-9.098
		c-12.895-0.797-37.643,4.8-44.908,7.161c-0.2,0.066-0.068,0.002-0.269,0.068c3.946-1.404,15.892-4.916,27.036-6.916
		c-4.288,0.17-11.99,1.65-13.962,2.224c0.001-0.054,0,0-0.006-0.054C20.637,36.882,33.439,33.58,43.821,32.886L43.821,32.886z"/>
	<path fill-rule="evenodd" clip-rule="evenodd" fill="#006EAB" d="M9.234,1.952c5.657-0.397,12.584,2.456,15.292,4.412
		c3.027,2.189,6.187,6.768,7.646,10.511c-1.94,3.244-4.73,6.035-7.008,7.754c-2.045,1.545-12.943,7.35-13.191,7.111
		c-0.238-0.228,0.806-1.116,1.567-1.734c0.934-0.763,3.208-2.252,2.687-3.466c-0.32-0.743-2.742-1.159-5.24-1.209
		c-1.926-0.036-5.137-0.38-5.146-0.843c-0.011-0.49,4.362,0.004,10.053-0.293c3.183-0.17,7.933-1.973,7.854-4.711
		c-0.078-2.736-1.006-5.373-3.482-8.386C16.885,6.991,12.26,3.803,9.234,1.952L9.234,1.952z"/>
	<path fill-rule="evenodd" clip-rule="evenodd" fill="#006EAB" d="M36.402,0c2.221,0.512,4.48,2.003,5.707,3.335
		c1.724,1.875,3.002,4.748,3.102,6.562c0.039,0.678-0.1,1.238-0.471,1.573c-1.375,1.234-4.091,4.669-4.236,9.38
		c1.456-0.254,3.273-0.608,4.848,0.325c1.252,0.747,1.752,1.479,2.982,3.253c0.94,0.65,4.293,2.906,4.506,3.049
		c-1.962-0.46-4.178-0.984-6.161-1.526c-1.548-0.2-3.817,0.188-5.444,0.664c-1.758,0.515-5.25,0.774-7.166,0.729
		c-2.933-0.072-6.138-0.36-9.674-1.289c2.576-1.482,6.125-5.168,7.65-7.412c1.842-2.711,3.318-5.323,4.401-9.729
		C36.922,6.986,37.152,3.848,36.402,0L36.402,0z"/>
	<path fill-rule="evenodd" clip-rule="evenodd" fill="#006EAB" d="M30.002,72.701h-3.545c-1.68,0-2.428-0.748-2.428-2.426V58.113
		c0-0.461-0.215-0.674-0.676-0.674h-1.598v-3.23h3.545c1.68,0,2.428,0.748,2.428,2.428v12.16c0,0.461,0.215,0.676,0.677,0.676h1.597
		V72.701L30.002,72.701z"/>
	<path fill-rule="evenodd" clip-rule="evenodd" fill="#006EAB" d="M25.879,51.416c-1.264,0-2.291-1.029-2.291-2.291
		c0-1.263,1.027-2.291,2.291-2.291s2.291,1.028,2.291,2.291C28.17,50.387,27.143,51.416,25.879,51.416L25.879,51.416z"/>
	<path fill-rule="evenodd" clip-rule="evenodd" fill="#52AE32" d="M90.173,72.701h-3.545c-1.68,0-2.426-0.748-2.426-2.426V58.113
		c0-0.461-0.217-0.674-0.678-0.674h-1.598v-3.23h3.547c1.678,0,2.426,0.748,2.426,2.428v12.16c0,0.461,0.215,0.676,0.678,0.676
		h1.596V72.701L90.173,72.701z"/>
	<path fill-rule="evenodd" clip-rule="evenodd" fill="#52AE32" d="M86.05,51.416c-1.262,0-2.292-1.029-2.292-2.291
		c0-1.263,1.03-2.291,2.292-2.291c1.264,0,2.293,1.028,2.293,2.291C88.343,50.387,87.313,51.416,86.05,51.416L86.05,51.416z"/>
	<g>
		<path fill="#7C7C7B" stroke="#7C7C7B" stroke-width="0.75" d="M3.14,86.824c0.417,0.268,1.016,0.471,1.658,0.471
			c0.952,0,1.508-0.502,1.508-1.23c0-0.662-0.385-1.059-1.358-1.422c-1.177-0.428-1.904-1.049-1.904-2.053
			c0-1.125,0.931-1.959,2.332-1.959c0.728,0,1.273,0.172,1.583,0.354l-0.256,0.76c-0.225-0.139-0.706-0.342-1.358-0.342
			c-0.984,0-1.359,0.588-1.359,1.08c0,0.674,0.439,1.006,1.434,1.391c1.219,0.471,1.829,1.059,1.829,2.117
			c0,1.113-0.813,2.086-2.514,2.086c-0.695,0-1.455-0.215-1.84-0.471L3.14,86.824z"/>
		<path fill="#7C7C7B" stroke="#7C7C7B" stroke-width="0.75" d="M12.651,87.777c-0.246,0.117-0.792,0.299-1.487,0.299
			c-1.562,0-2.578-1.059-2.578-2.643c0-1.594,1.091-2.76,2.781-2.76c0.556,0,1.048,0.141,1.305,0.279l-0.214,0.717
			c-0.225-0.119-0.578-0.246-1.091-0.246c-1.188,0-1.829,0.887-1.829,1.957c0,1.197,0.77,1.936,1.797,1.936
			c0.535,0,0.888-0.129,1.155-0.246L12.651,87.777z"/>
		<path fill="#7C7C7B" stroke="#7C7C7B" stroke-width="0.75" d="M14.15,80.363h0.941v3.242h0.021
			c0.149-0.268,0.385-0.514,0.674-0.674c0.278-0.16,0.609-0.258,0.962-0.258c0.695,0,1.808,0.428,1.808,2.205v3.08h-0.941v-2.975
			c0-0.834-0.311-1.529-1.198-1.529c-0.609,0-1.08,0.428-1.262,0.932c-0.053,0.139-0.064,0.277-0.064,0.449v3.123H14.15V80.363z"/>
		<path fill="#7C7C7B" stroke="#7C7C7B" stroke-width="0.75" d="M20.72,82.781l0.695,2.631c0.139,0.578,0.278,1.113,0.375,1.648
			h0.032c0.118-0.525,0.289-1.08,0.46-1.637l0.845-2.643h0.792l0.802,2.588c0.192,0.621,0.342,1.166,0.46,1.691h0.032
			c0.085-0.525,0.225-1.07,0.396-1.68l0.738-2.6h0.93l-1.668,5.178h-0.855l-0.792-2.471c-0.182-0.578-0.332-1.092-0.46-1.701h-0.021
			c-0.128,0.621-0.289,1.154-0.471,1.711l-0.834,2.461h-0.855l-1.562-5.178H20.72z"/>
		<path fill="#7C7C7B" stroke="#7C7C7B" stroke-width="0.75" d="M29.034,85.541c0.021,1.273,0.823,1.797,1.775,1.797
			c0.674,0,1.091-0.117,1.433-0.268l0.171,0.674c-0.332,0.15-0.909,0.332-1.733,0.332c-1.594,0-2.546-1.059-2.546-2.621
			c0-1.561,0.92-2.781,2.428-2.781c1.701,0,2.139,1.477,2.139,2.43c0,0.191-0.01,0.33-0.032,0.438H29.034z M31.793,84.867
			c0.011-0.588-0.246-1.52-1.305-1.52c-0.963,0-1.369,0.867-1.444,1.52H31.793z"/>
		<path fill="#7C7C7B" stroke="#7C7C7B" stroke-width="0.75" d="M35.314,81.326c0,0.322-0.225,0.578-0.599,0.578
			c-0.342,0-0.567-0.256-0.567-0.578c0-0.32,0.235-0.588,0.588-0.588C35.079,80.738,35.314,80.996,35.314,81.326z M34.266,87.959
			v-5.178h0.941v5.178H34.266z"/>
		<path fill="#7C7C7B" stroke="#7C7C7B" stroke-width="0.75" d="M36.577,87.412l2.332-3.047c0.235-0.289,0.449-0.535,0.685-0.814
			v-0.021h-2.803v-0.748h3.937v0.588l-2.311,3.006c-0.225,0.289-0.428,0.557-0.663,0.812v0.021h3.017v0.75h-4.193V87.412z"/>
		<path fill="#7C7C7B" stroke="#7C7C7B" stroke-width="0.75" d="M41.35,88.375l2.974-7.754h0.738l-2.995,7.754H41.35z"/>
		<path fill="#7C7C7B" stroke="#7C7C7B" stroke-width="0.75" d="M46.121,86.824c0.417,0.268,1.016,0.471,1.658,0.471
			c0.952,0,1.508-0.502,1.508-1.23c0-0.662-0.385-1.059-1.358-1.422c-1.177-0.428-1.904-1.049-1.904-2.053
			c0-1.125,0.931-1.959,2.332-1.959c0.728,0,1.273,0.172,1.583,0.354l-0.256,0.76c-0.225-0.139-0.706-0.342-1.358-0.342
			c-0.984,0-1.358,0.588-1.358,1.08c0,0.674,0.438,1.006,1.433,1.391c1.219,0.471,1.829,1.059,1.829,2.117
			c0,1.113-0.813,2.086-2.514,2.086c-0.695,0-1.455-0.215-1.84-0.471L46.121,86.824z"/>
		<path fill="#7C7C7B" stroke="#7C7C7B" stroke-width="0.75" d="M56.209,86.535c0,0.547,0.011,1.018,0.043,1.424h-0.834
			l-0.053-0.846h-0.021c-0.235,0.418-0.792,0.963-1.711,0.963c-0.813,0-1.787-0.459-1.787-2.268v-3.027h0.941v2.855
			c0,0.984,0.31,1.658,1.155,1.658c0.631,0,1.07-0.438,1.241-0.865c0.054-0.129,0.085-0.301,0.085-0.482v-3.166h0.941V86.535z"/>
		<path fill="#7C7C7B" stroke="#7C7C7B" stroke-width="0.75" d="M59.217,81.326c0,0.322-0.225,0.578-0.599,0.578
			c-0.342,0-0.567-0.256-0.567-0.578c0-0.32,0.235-0.588,0.588-0.588C58.982,80.738,59.217,80.996,59.217,81.326z M58.169,87.959
			v-5.178h0.941v5.178H58.169z"/>
		<path fill="#7C7C7B" stroke="#7C7C7B" stroke-width="0.75" d="M60.94,87.006c0.289,0.172,0.781,0.365,1.251,0.365
			c0.674,0,0.995-0.332,0.995-0.771c0-0.449-0.268-0.684-0.952-0.941c-0.941-0.342-1.38-0.844-1.38-1.465
			c0-0.834,0.685-1.52,1.786-1.52c0.524,0,0.984,0.141,1.262,0.322l-0.225,0.684c-0.203-0.129-0.578-0.311-1.059-0.311
			c-0.557,0-0.856,0.322-0.856,0.707c0,0.428,0.299,0.619,0.974,0.887c0.888,0.332,1.358,0.781,1.358,1.551
			c0,0.92-0.717,1.562-1.926,1.562c-0.567,0-1.091-0.15-1.455-0.363L60.94,87.006z"/>
		<path fill="#7C7C7B" stroke="#7C7C7B" stroke-width="0.75" d="M65.574,87.006c0.289,0.172,0.781,0.365,1.251,0.365
			c0.674,0,0.995-0.332,0.995-0.771c0-0.449-0.268-0.684-0.952-0.941c-0.941-0.342-1.38-0.844-1.38-1.465
			c0-0.834,0.685-1.52,1.786-1.52c0.524,0,0.984,0.141,1.262,0.322l-0.225,0.684c-0.203-0.129-0.578-0.311-1.059-0.311
			c-0.557,0-0.856,0.322-0.856,0.707c0,0.428,0.299,0.619,0.974,0.887c0.888,0.332,1.358,0.781,1.358,1.551
			c0,0.92-0.717,1.562-1.925,1.562c-0.567,0-1.091-0.15-1.455-0.363L65.574,87.006z"/>
		<path fill="#7C7C7B" stroke="#7C7C7B" stroke-width="0.75" d="M70.859,85.541c0.021,1.273,0.823,1.797,1.776,1.797
			c0.674,0,1.09-0.117,1.433-0.268l0.171,0.674c-0.331,0.15-0.908,0.332-1.732,0.332c-1.594,0-2.546-1.059-2.546-2.621
			c0-1.561,0.92-2.781,2.428-2.781c1.701,0,2.139,1.477,2.139,2.43c0,0.191-0.011,0.33-0.031,0.438H70.859z M73.619,84.867
			c0.011-0.588-0.245-1.52-1.305-1.52c-0.963,0-1.369,0.867-1.444,1.52H73.619z"/>
		<path fill="#7C7C7B" stroke="#7C7C7B" stroke-width="0.75" d="M75.299,88.375l2.975-7.754h0.738l-2.996,7.754H75.299z"/>
		<path fill="#7C7C7B" stroke="#7C7C7B" stroke-width="0.75" d="M80.072,86.824c0.417,0.268,1.017,0.471,1.657,0.471
			c0.953,0,1.509-0.502,1.509-1.23c0-0.662-0.385-1.059-1.358-1.422c-1.177-0.428-1.904-1.049-1.904-2.053
			c0-1.125,0.932-1.959,2.332-1.959c0.728,0,1.273,0.172,1.583,0.354l-0.257,0.76c-0.225-0.139-0.705-0.342-1.357-0.342
			c-0.984,0-1.359,0.588-1.359,1.08c0,0.674,0.439,1.006,1.434,1.391c1.219,0.471,1.829,1.059,1.829,2.117
			c0,1.113-0.813,2.086-2.514,2.086c-0.695,0-1.454-0.215-1.84-0.471L80.072,86.824z"/>
		<path fill="#7C7C7B" stroke="#7C7C7B" stroke-width="0.75" d="M86.106,82.781l1.016,2.898c0.172,0.482,0.311,0.91,0.418,1.338
			h0.031c0.119-0.428,0.268-0.855,0.439-1.338l1.006-2.898h0.984l-2.033,5.178h-0.898l-1.969-5.178H86.106z"/>
		<path fill="#7C7C7B" stroke="#7C7C7B" stroke-width="0.75" d="M92.333,81.326c0,0.322-0.225,0.578-0.598,0.578
			c-0.344,0-0.568-0.256-0.568-0.578c0-0.32,0.236-0.588,0.59-0.588C92.099,80.738,92.333,80.996,92.333,81.326z M91.286,87.959
			v-5.178h0.941v5.178H91.286z"/>
		<path fill="#7C7C7B" stroke="#7C7C7B" stroke-width="0.75" d="M93.597,87.412l2.332-3.047c0.234-0.289,0.449-0.535,0.684-0.814
			v-0.021H93.81v-0.748h3.938v0.588l-2.311,3.006c-0.225,0.289-0.428,0.557-0.664,0.812v0.021h3.018v0.75h-4.193V87.412z"/>
		<path fill="#7C7C7B" stroke="#7C7C7B" stroke-width="0.75" d="M98.571,87.412l2.332-3.047c0.236-0.289,0.449-0.535,0.686-0.814
			v-0.021h-2.803v-0.748h3.936v0.588l-2.311,3.006c-0.225,0.289-0.428,0.557-0.662,0.812v0.021h3.016v0.75h-4.193V87.412z"/>
		<path fill="#7C7C7B" stroke="#7C7C7B" stroke-width="0.75" d="M104.585,85.541c0.021,1.273,0.824,1.797,1.775,1.797
			c0.674,0,1.092-0.117,1.434-0.268l0.172,0.674c-0.332,0.15-0.91,0.332-1.734,0.332c-1.594,0-2.545-1.059-2.545-2.621
			c0-1.561,0.92-2.781,2.428-2.781c1.701,0,2.139,1.477,2.139,2.43c0,0.191-0.01,0.33-0.031,0.438H104.585z M107.345,84.867
			c0.01-0.588-0.246-1.52-1.305-1.52c-0.963,0-1.369,0.867-1.445,1.52H107.345z"/>
		<path fill="#7C7C7B" stroke="#7C7C7B" stroke-width="0.75" d="M109.817,84.396c0-0.609-0.01-1.133-0.043-1.615h0.824l0.043,1.027
			h0.031c0.236-0.695,0.814-1.135,1.445-1.135c0.096,0,0.17,0.012,0.256,0.021v0.889c-0.096-0.021-0.193-0.021-0.32-0.021
			c-0.664,0-1.135,0.492-1.262,1.197c-0.021,0.129-0.033,0.289-0.033,0.439v2.76h-0.941V84.396z"/>
		<path fill="#7C7C7B" stroke="#7C7C7B" stroke-width="0.75" d="M117.296,86.717c0,0.449,0.021,0.889,0.076,1.242h-0.846
			l-0.074-0.652h-0.033c-0.289,0.406-0.846,0.77-1.582,0.77c-1.049,0-1.584-0.738-1.584-1.486c0-1.252,1.113-1.938,3.113-1.926
			v-0.107c0-0.416-0.119-1.197-1.178-1.188c-0.492,0-0.994,0.141-1.357,0.385l-0.215-0.631c0.428-0.268,1.059-0.449,1.713-0.449
			c1.582,0,1.967,1.08,1.967,2.107V86.717z M116.388,85.316c-1.027-0.021-2.193,0.16-2.193,1.166c0,0.621,0.406,0.898,0.877,0.898
			c0.686,0,1.123-0.428,1.273-0.867c0.031-0.105,0.043-0.213,0.043-0.299V85.316z"/>
	</g>
</g>
</svg>
