<svg id="Calque_1" data-name="Calque 1" xmlns="http://www.w3.org/2000/svg" viewBox="0 0 960 618.08"><defs><style>.cls-1{fill:#e95a28;}.cls-2{fill:#fff;}.cls-3{fill:#e95a29;}</style></defs><title>Plan de travail 1</title><circle class="cls-1" cx="301.75" cy="303.33" r="245.38"/><path class="cls-2" d="M493.43,562.84l-19.49-75.51H369.69l-19.49,75.51H263.49L369.69,214H472.49L579.66,562.84ZM457.87,420.59l-19-76q-2.44-9.74-5.85-23.38t-6.58-27.28q-3.17-13.63-5.12-23.87-2,10.23-4.87,23.87t-6.33,27.28q-3.41,13.64-5.36,23.38l-19,76Z"/><path class="cls-3" d="M509.1,380.14V433.4q0,5.66-.33,11.48t-1,11.32h.5q1.5-2.5,4.08-6.49t4.91-7.16l21-27.29h29.46L537.06,454l32.29,52.59H539.23l-20.47-35.28-9.65,8v27.29H482.48V380.14Z"/><path class="cls-3" d="M618.45,486.49a31,31,0,0,0,6.82-.75,57.16,57.16,0,0,0,7-2.08v20a43.66,43.66,0,0,1-9.74,3.41,55.44,55.44,0,0,1-12.4,1.25q-12.65,0-19.89-6.74T583,477.67V435.73H572.35v-12l12.81-8.16,7-19.31h17.48v19H631.1v20.47H609.63v40.94Q609.63,486.49,618.45,486.49Z"/><path class="cls-3" d="M660.89,378.81a16.75,16.75,0,0,1,10.32,3q4,3,4,10.15t-4,10.07a17.08,17.08,0,0,1-10.32,2.91q-6.33,0-10.24-2.91T646.74,392q0-7.15,3.91-10.15T660.89,378.81Zm13.31,36.45v91.37H647.57V415.26Z"/><path class="cls-3" d="M775.06,460.69q0,14.15-4.74,24.88a37.41,37.41,0,0,1-14,16.73q-9.24,6-23.05,6-12.82,0-22.05-6a39.65,39.65,0,0,1-14.31-16.64q-5.08-10.65-5.08-25,0-21.8,10.82-34.45t31.12-12.65a41.5,41.5,0,0,1,21.47,5.49,37.44,37.44,0,0,1,14.56,16Q775.06,445.55,775.06,460.69Zm-56.09.17q0,13,3.41,19.64t11.23,6.66q7.82,0,11.15-6.66t3.33-19.8q0-13-3.41-19.47t-11.23-6.49q-7.66,0-11.07,6.49T719,460.86Z"/><path class="cls-3" d="M843.12,413.59q13.48,0,21.47,8.16t8,25.13v59.75H846V454.53q0-9.49-2.58-14.31t-8.9-4.83q-8.65,0-11.9,7.16t-3.25,22v42.11H792.7V415.26h20.47l3.33,11.65h1.33a24.7,24.7,0,0,1,10.4-10A32.51,32.51,0,0,1,843.12,413.59Z"/><path class="cls-3" d="M675.34,191.84A9.35,9.35,0,0,1,671,190.7a13.09,13.09,0,0,0-7.11-1.77c-3.74.09-9.22,2.85-10.86,3.86a27.1,27.1,0,0,1-5.78,1.94,68.56,68.56,0,0,1-1.89-9.66,94.25,94.25,0,0,1-.42-17.74c.53-6.81-11.13-13.19-21.41-25.84s-9.18-6.85-9.08-2.83-1,8.06-1.8,7.95-2.94-3.12-7.23-8.42-14.91-20.72-16.7-20-3,18.51,1.74,26.44,8.43,33.91,11.23,40.78,18.57,28.82,21,29.87-2.1,5-6.39,5.56-10.31,3.57-8.17,6.43,8.31,11,10.5,10.15,6.31-8.61,11-11.35,13.5-3.79,20.76-7.57,14.33-15.59,17.18-18,4.43-6.07,6.08-6.94S676.73,191.81,675.34,191.84Z"/><path class="cls-3" d="M804.51,270.66s-.37-8.35-14.08-17.18-37.07-31.39-39.09-37-9-15-9.75-17.49-4.49,4-.63,12.26,8.46,17.06,9.72,22.3,8,23.44,23.67,31.43,23.21,12.35,22.44,14.41S792.5,284,788.87,283s-13.05-5.27-14.09-3.25,3.18,21,14.7,25.56,24.51,1.25,26.28-.15-8.12-3.89-6.37-7.44,6.86-1.34,10.08-3.65,11.29-.29,13.4,0-.84-2-.84-2,17.1,2.78,24.17,4.14,24.39-.1,29.26,1.81,46.84,2,48.92-1.24c1.3-2-6.32-1-13-1s-28.14-2.23-36-6.09-19.38-8.42-24.61-9.57-21,1.05-27.2,1.14a82.29,82.29,0,0,1-9.61-.31s-3.44-5-6.69-6.94S804.51,270.66,804.51,270.66Z"/><path class="cls-3" d="M752.76,109.16s10.23-7.4,15.82-7.2,5.83,3.39,7.85,3.14,5.16.25,3.8,1.15-3.32,1.58-4,3-4.28,9.31-7.88,12.24-6,3.8-4.07,5,10.74,7.63,17.82,6.76,15.15-1.85,19.11,2.95,10.08,18.64,15.42,27.17,14.87,35.49,16.43,45.07,2.73,12.75-.14,14.86-16.53-8.24-20.76-16.51-11-23-19-28.16-39.84-16.82-46.58-19.22a23.74,23.74,0,0,1-10.22-7s-7.58,5.07-11.95,7.71c-2.62,1.58-9.66,12.11-10.43,15.33s-1.53,5.07-4.41,3.86a42.68,42.68,0,0,1-9.24-5.32c-2.81-2.2-7.91-7.24-5.79-9.06s6-3.66,10-6.49,6.95-7.1,9.58-11.13a18.84,18.84,0,0,0,3-9.15c-.07-.58-11.81-13.6-15.58-25.25s-12.4-24.85-15.06-27.46S659.56,72,652.53,67.17,636.64,57,646.94,55s39.94.79,52,3.82,22.81,4.45,24.9,12,1.87,18.52,6.37,25S746.4,111.4,752.76,109.16Z"/><rect class="cls-2" x="631.12" y="372.13" width="53.18" height="35.45"/><path class="cls-3" d="M713.51,290.44s-2.3-2.95-5.17-2.23-4.82,1.73-6.54,1.58-8.76-1.58-11.07-8.62.87-18-5-20.41S663.57,255.16,645,257s-20.12,1.44-14.23,5.75,15.37,5.61,18.54,5.61,10.06.72,12.79,3,4.28,7.62,8.47,15.23,9.36,16,9.07,18.54-3.59,5.75-7.33,7-6.9,2-6.18,3.3,4.74,3,6.46,4.31,4,3.45,5,2,3.31-6,7.62-7.33,6.75-.72,13.79-4.75,11.48-10.52,12.34-11.52,3.76.74,5.19,2.47,3.45,6.32,7.47,9.34,5.32,8.33,8.34,9.2,1.87-12.22,1.72-18.68-.72-9.63-2.88-12.79-4.59-3.88-6.46-2.59S715.8,290.29,713.51,290.44Z"/><path class="cls-3" d="M744.39,355.58c-4.44.61-18.83,1.08-24.38-.77s-13.59-3.82-17.15-4.11S689,353.3,685,353.92a54,54,0,0,1-6.39.66,20,20,0,0,0-5.06-4c-2.34-1-8.74-1.07-8.74-1.07s-1-5.49-10.87-10.1S626.51,322,624.66,318.48s-7.3-9.1-8-10.7-2.61,3.08.7,8.18,7.15,10.52,8.46,13.88,7.41,14.79,18.51,18.66,16.48,6.08,16.16,7.51a4.75,4.75,0,0,1-4.92,3.12c-2.49-.3-9.12-2.31-9.62-.87s4,13.61,12.05,15.59,16.33-1.39,17.37-2.48-5.73-1.84-4.89-4.35,4.42-1.51,6.34-3.33,7.45-1.21,8.87-1.24-.74-1.24-.74-1.24,11.57.29,16.37.55,16.14-2.28,19.53-1.45,31.18-2.95,32.27-5.25C753.78,353.6,748.83,355,744.39,355.58Z"/><path class="cls-3" d="M429.76,554.25a20.35,20.35,0,0,1-4-.35,14.87,14.87,0,0,1-3.25-1V549a18.23,18.23,0,0,0,3.12,1.27,14,14,0,0,0,4.17.57,10.4,10.4,0,0,0,3.63-.61,5.93,5.93,0,0,0,2.66-1.88,5.11,5.11,0,0,0,1-3.28,4.24,4.24,0,0,0-1.16-3,17.51,17.51,0,0,0-4-2.86,20.07,20.07,0,0,1-2.95-2.05,8.13,8.13,0,0,1-2-2.49,7.47,7.47,0,0,1-.72-3.45,8.45,8.45,0,0,1,1.4-4.91,8.81,8.81,0,0,1,3.73-3.08,12.39,12.39,0,0,1,5.13-1,17.29,17.29,0,0,1,4.3.48,16.34,16.34,0,0,1,3.52,1.35l-1.49,3.32a17,17,0,0,0-2.84-1.16,11.38,11.38,0,0,0-3.49-.55,6.73,6.73,0,0,0-4.41,1.4,4.8,4.8,0,0,0-1.7,3.93,4.58,4.58,0,0,0,.48,2.23,5.1,5.1,0,0,0,1.48,1.62,28.72,28.72,0,0,0,2.49,1.62,36,36,0,0,1,3.3,2.23,8.34,8.34,0,0,1,2.23,2.53,7.24,7.24,0,0,1,.81,3.58,8.38,8.38,0,0,1-3.12,7.08A13.29,13.29,0,0,1,429.76,554.25Z"/><path class="cls-3" d="M451.82,554.25a6.74,6.74,0,0,1-4-1.14q-1.62-1.14-1.62-4a13.89,13.89,0,0,1,.39-3.1l2.66-12.71h-3.63l.35-1.75,3.93-1.66,2.71-4.85h2.27l-1.18,5.33h5.9l-.61,2.93h-5.85l-2.71,12.75q-.13.57-.26,1.29a7.46,7.46,0,0,0-.13,1.33,2.68,2.68,0,0,0,.55,1.7,2.11,2.11,0,0,0,1.77.7,7.56,7.56,0,0,0,1.53-.15,15.73,15.73,0,0,0,1.57-.42v2.93a8.06,8.06,0,0,1-1.62.52A8.83,8.83,0,0,1,451.82,554.25Z"/><path class="cls-3" d="M466.49,554.25a6,6,0,0,1-4.26-1.48,5.62,5.62,0,0,1-1.59-4.32,10.84,10.84,0,0,1,.15-1.88l.33-1.88,3.06-14.28h3.89l-3.14,14.72a15.31,15.31,0,0,0-.39,2.93,3.26,3.26,0,0,0,.7,2.21,3,3,0,0,0,2.36.81,6.15,6.15,0,0,0,3.19-1,10.69,10.69,0,0,0,3.21-3.36,18.46,18.46,0,0,0,2.34-6.16l2.14-10.09h3.8l-5,23.41h-3.14l.48-4.32h-.22a20.14,20.14,0,0,1-1.94,2.18,10.19,10.19,0,0,1-2.6,1.83A7.43,7.43,0,0,1,466.49,554.25Z"/><path class="cls-3" d="M484.57,553.94l5-23.67H493l-.48,4.32a23.3,23.3,0,0,1,2-2.16,10.4,10.4,0,0,1,2.6-1.86,7.38,7.38,0,0,1,3.39-.74,6.11,6.11,0,0,1,4.41,1.55,5.74,5.74,0,0,1,1.62,4.35,14.21,14.21,0,0,1-.15,2.05q-.15,1-.33,1.83l-3.1,14.33h-4.11L502,539.09q.17-1,.31-1.68a6.75,6.75,0,0,0,.13-1.29q0-2.79-3-2.8a6.13,6.13,0,0,0-3.17,1,10.27,10.27,0,0,0-3.14,3.3,18,18,0,0,0-2.25,6.12l-2.18,10.18Z"/><path class="cls-3" d="M517.24,554.25a5.78,5.78,0,0,1-4.59-2q-1.75-2-1.75-6a23.46,23.46,0,0,1,.79-6.11,17.88,17.88,0,0,1,2.29-5.22,11.71,11.71,0,0,1,3.63-3.6A8.91,8.91,0,0,1,522.4,530a5.66,5.66,0,0,1,3.78,1.2,7.65,7.65,0,0,1,2.12,2.82h.22q.22-1.48.41-2.84t.55-2.93l1.62-7.64h3.8l-7,33.19h-3.14l.48-4.32H525a18.78,18.78,0,0,1-3.45,3.36A7,7,0,0,1,517.24,554.25Zm1.31-3.19a5,5,0,0,0,2.93-1.07,11.76,11.76,0,0,0,2.75-2.9,16.29,16.29,0,0,0,2.8-9.17,5.37,5.37,0,0,0-1-3.41,4,4,0,0,0-3.34-1.31,5,5,0,0,0-3.17,1.11,9.81,9.81,0,0,0-2.47,3,16.61,16.61,0,0,0-1.62,4.24,20.43,20.43,0,0,0-.57,4.8Q514.84,551.06,518.55,551.06Z"/><path class="cls-3" d="M544.67,554.25a8.12,8.12,0,0,1-6.27-2.38,9.1,9.1,0,0,1-2.21-6.44,19.36,19.36,0,0,1,.81-5.53,17.74,17.74,0,0,1,2.34-5,12.42,12.42,0,0,1,3.69-3.6A9,9,0,0,1,547.9,530a7.51,7.51,0,0,1,5,1.44,5,5,0,0,1,1.68,4,6.69,6.69,0,0,1-1.42,4.17,9.58,9.58,0,0,1-4.43,3,23,23,0,0,1-7.82,1.11h-.74q0,.39-.07.83t0,.79a6.39,6.39,0,0,0,1.29,4.22,4.9,4.9,0,0,0,4,1.55,10.61,10.61,0,0,0,3.14-.46,21.49,21.49,0,0,0,3.23-1.33v3.28a27.18,27.18,0,0,1-3.25,1.22A13.36,13.36,0,0,1,544.67,554.25Zm-3.93-13.67H541a24.05,24.05,0,0,0,4.85-.46,8.44,8.44,0,0,0,3.58-1.53,3.46,3.46,0,0,0,1.35-2.86,2.44,2.44,0,0,0-.76-1.86,3.37,3.37,0,0,0-2.38-.72,5.73,5.73,0,0,0-4,1.94A12,12,0,0,0,540.74,540.58Z"/><path class="cls-3" d="M575.68,554.25a5.78,5.78,0,0,1-4.59-2q-1.75-2-1.75-6a23.46,23.46,0,0,1,.79-6.11,17.88,17.88,0,0,1,2.29-5.22,11.71,11.71,0,0,1,3.63-3.6,8.91,8.91,0,0,1,4.78-1.31,5.66,5.66,0,0,1,3.78,1.2,7.65,7.65,0,0,1,2.12,2.82H587q.22-1.48.41-2.84t.55-2.93l1.62-7.64h3.8l-7,33.19h-3.14l.48-4.32h-.17a18.78,18.78,0,0,1-3.45,3.36A7,7,0,0,1,575.68,554.25Zm1.31-3.19a5,5,0,0,0,2.93-1.07,11.76,11.76,0,0,0,2.75-2.9,16.29,16.29,0,0,0,2.8-9.17,5.37,5.37,0,0,0-1-3.41,4,4,0,0,0-3.34-1.31,5,5,0,0,0-3.17,1.11,9.81,9.81,0,0,0-2.47,3,16.61,16.61,0,0,0-1.62,4.24,20.43,20.43,0,0,0-.57,4.8Q573.28,551.06,577,551.06Z"/><path class="cls-3" d="M603.11,554.25a8.12,8.12,0,0,1-6.27-2.38,9.1,9.1,0,0,1-2.21-6.44,19.38,19.38,0,0,1,.81-5.53,17.78,17.78,0,0,1,2.34-5,12.42,12.42,0,0,1,3.69-3.6,9,9,0,0,1,4.87-1.35,7.51,7.51,0,0,1,5,1.44,5,5,0,0,1,1.68,4,6.69,6.69,0,0,1-1.42,4.17,9.58,9.58,0,0,1-4.43,3,22.94,22.94,0,0,1-7.82,1.11h-.74q0,.39-.07.83t0,.79a6.39,6.39,0,0,0,1.29,4.22,4.9,4.9,0,0,0,4,1.55,10.61,10.61,0,0,0,3.14-.46,21.52,21.52,0,0,0,3.23-1.33v3.28a27.15,27.15,0,0,1-3.25,1.22A13.35,13.35,0,0,1,603.11,554.25Zm-3.93-13.67h.3a24.06,24.06,0,0,0,4.85-.46,8.44,8.44,0,0,0,3.58-1.53,3.46,3.46,0,0,0,1.35-2.86,2.44,2.44,0,0,0-.76-1.86,3.37,3.37,0,0,0-2.38-.72,5.73,5.73,0,0,0-4,1.94A12,12,0,0,0,599.18,540.58Z"/><path class="cls-3" d="M615.56,553.81l5-23.41h3.14l-.48,4.32h.22q.92-1.18,1.92-2.27a8.94,8.94,0,0,1,2.27-1.79,6,6,0,0,1,2.93-.7q.61,0,1.29.07a6.42,6.42,0,0,1,1.24.24l-.83,3.45a10.3,10.3,0,0,0-2.23-.26,5.85,5.85,0,0,0-3.89,1.44,11.69,11.69,0,0,0-2.84,3.67,18.08,18.08,0,0,0-1.62,4.54l-2.27,10.7Z"/><path class="cls-3" d="M658.06,554.25q-5.55,0-8.69-3.1t-3.14-8.65a25.62,25.62,0,0,1,1.2-8,20,20,0,0,1,3.45-6.46,16.17,16.17,0,0,1,5.33-4.32,15,15,0,0,1,6.83-1.55,23,23,0,0,1,5,.48,20.83,20.83,0,0,1,4.06,1.35l-1.48,3.41a33.45,33.45,0,0,0-3.52-1.24,14.44,14.44,0,0,0-4.08-.55,10.49,10.49,0,0,0-6.44,2.14,14.5,14.5,0,0,0-4.52,5.87,21,21,0,0,0-1.66,8.58,10.73,10.73,0,0,0,.85,4.35,6.8,6.8,0,0,0,2.64,3.08,8.42,8.42,0,0,0,4.59,1.14,17.68,17.68,0,0,0,3-.24,18,18,0,0,0,2.34-.55l2-9.22h-6.11l.74-3.41h10l-3.32,15.24a32.07,32.07,0,0,1-4.15,1.16A24.13,24.13,0,0,1,658.06,554.25Z"/><path class="cls-3" d="M681.12,554.25a5.76,5.76,0,0,1-4.59-2q-1.75-2-1.75-6a22.3,22.3,0,0,1,.85-6.22,18.13,18.13,0,0,1,2.38-5.2,12.23,12.23,0,0,1,3.63-3.56,8.56,8.56,0,0,1,4.63-1.31,5.61,5.61,0,0,1,3.76,1.22,7.71,7.71,0,0,1,2.14,2.84h.22l1.4-3.63h2.93l-5,23.41h-3.06l.57-4.32h-.18a17.38,17.38,0,0,1-3.52,3.34A7.45,7.45,0,0,1,681.12,554.25Zm1.27-3.19a5.23,5.23,0,0,0,3.14-1.18,11.54,11.54,0,0,0,2.82-3.17,16.92,16.92,0,0,0,1.94-4.52,19,19,0,0,0,.44-2.31,17,17,0,0,0,.13-2,5,5,0,0,0-1.14-3.36,3.84,3.84,0,0,0-3.06-1.31,5.17,5.17,0,0,0-3.14,1.07,9.69,9.69,0,0,0-2.53,2.93,15.79,15.79,0,0,0-1.68,4.21,20.27,20.27,0,0,0-.59,4.94,5.51,5.51,0,0,0,1,3.54A3.3,3.3,0,0,0,682.39,551.06Z"/><path class="cls-3" d="M698.72,553.81l5-23.41h3.14l-.48,4.32h.22q.92-1.18,1.92-2.27a8.94,8.94,0,0,1,2.27-1.79,6,6,0,0,1,2.93-.7q.61,0,1.29.07a6.42,6.42,0,0,1,1.24.24l-.83,3.45a10.3,10.3,0,0,0-2.23-.26,5.85,5.85,0,0,0-3.89,1.44,11.69,11.69,0,0,0-2.84,3.67,18.08,18.08,0,0,0-1.62,4.54l-2.27,10.7Z"/><path class="cls-3" d="M723,554.25a6.74,6.74,0,0,1-4-1.14q-1.62-1.14-1.62-4a13.89,13.89,0,0,1,.39-3.1l2.66-12.71H716.8l.35-1.75,3.93-1.66,2.71-4.85h2.27l-1.18,5.33h5.9l-.61,2.93h-5.85l-2.71,12.75q-.13.57-.26,1.29a7.53,7.53,0,0,0-.13,1.33,2.68,2.68,0,0,0,.55,1.7,2.1,2.1,0,0,0,1.77.7,7.57,7.57,0,0,0,1.53-.15,15.72,15.72,0,0,0,1.57-.42v2.93A8,8,0,0,1,725,554,8.83,8.83,0,0,1,723,554.25Z"/><path class="cls-3" d="M740,554.25a8.12,8.12,0,0,1-6.27-2.38,9.1,9.1,0,0,1-2.21-6.44,19.38,19.38,0,0,1,.81-5.53,17.78,17.78,0,0,1,2.34-5,12.42,12.42,0,0,1,3.69-3.6,9,9,0,0,1,4.87-1.35,7.51,7.51,0,0,1,5,1.44,5,5,0,0,1,1.68,4,6.69,6.69,0,0,1-1.42,4.17,9.58,9.58,0,0,1-4.43,3,22.94,22.94,0,0,1-7.82,1.11h-.74q0,.39-.07.83t0,.79a6.39,6.39,0,0,0,1.29,4.22,4.9,4.9,0,0,0,4,1.55,10.61,10.61,0,0,0,3.14-.46,21.52,21.52,0,0,0,3.23-1.33v3.28a27.15,27.15,0,0,1-3.25,1.22A13.35,13.35,0,0,1,740,554.25ZM736,540.58h.3a24.06,24.06,0,0,0,4.85-.46,8.44,8.44,0,0,0,3.58-1.53,3.46,3.46,0,0,0,1.35-2.86,2.44,2.44,0,0,0-.76-1.86,3.37,3.37,0,0,0-2.38-.72,5.73,5.73,0,0,0-4,1.94A12,12,0,0,0,736,540.58Z"/><path class="cls-3" d="M752.23,553.94l5-23.67h3.41l-.48,4.32a23.38,23.38,0,0,1,2-2.16,10.4,10.4,0,0,1,2.6-1.86,7.38,7.38,0,0,1,3.39-.74,6.11,6.11,0,0,1,4.41,1.55,5.74,5.74,0,0,1,1.62,4.35,14.31,14.31,0,0,1-.15,2.05q-.15,1-.33,1.83l-3.1,14.33h-4.11l3.14-14.85q.17-1,.3-1.68a6.7,6.7,0,0,0,.13-1.29q0-2.79-3-2.8a6.13,6.13,0,0,0-3.17,1,10.27,10.27,0,0,0-3.14,3.3,18,18,0,0,0-2.25,6.12l-2.18,10.18Z"/><path class="cls-3" d="M781.27,553.81l-2.71-23.41h3.84l1.31,13q.13,1.14.24,2.66c.07,1,.13,2,.17,2.86s.07,1.54.07,1.94h.13q.48-1.09,1.14-2.49t1.33-2.8q.68-1.4,1.16-2.31l6.9-12.88H799l-12.67,23.41Z"/><path class="cls-3" d="M807.69,554.16a8.47,8.47,0,0,1-6.4-2.42,9.07,9.07,0,0,1-2.34-6.57,20,20,0,0,1,.74-5.37,16.71,16.71,0,0,1,2.21-4.85,11.6,11.6,0,0,1,3.67-3.52,9.65,9.65,0,0,1,5.09-1.33,8.46,8.46,0,0,1,6.42,2.42,9.19,9.19,0,0,1,2.32,6.62,19.78,19.78,0,0,1-.74,5.33,16.73,16.73,0,0,1-2.21,4.85,11.67,11.67,0,0,1-3.65,3.52A9.62,9.62,0,0,1,807.69,554.16Zm.22-3.19a5.72,5.72,0,0,0,3.78-1.46,9.94,9.94,0,0,0,2.75-4.22,18.91,18.91,0,0,0,1-6.59,7.33,7.33,0,0,0-.46-2.56,4.51,4.51,0,0,0-1.51-2.05,4.47,4.47,0,0,0-2.8-.81,5.94,5.94,0,0,0-4.17,1.64,10.65,10.65,0,0,0-2.73,4.37,18,18,0,0,0-1,6,6.06,6.06,0,0,0,1.33,4.19A4.76,4.76,0,0,0,807.91,551Zm0-24.72a1.92,1.92,0,0,1-1.35-.48,1.74,1.74,0,0,1-.52-1.35,2.66,2.66,0,0,1,.61-1.75,2.09,2.09,0,0,1,1.7-.74,1.68,1.68,0,0,1,1.33.48,1.87,1.87,0,0,1,.41,1.27,2.57,2.57,0,0,1-.68,1.9A2.09,2.09,0,0,1,808,526.25Zm7.82,0a1.87,1.87,0,0,1-1.31-.48,1.74,1.74,0,0,1-.52-1.35,2.66,2.66,0,0,1,.61-1.75,2.08,2.08,0,0,1,1.7-.74,1.69,1.69,0,0,1,1.31.48,1.81,1.81,0,0,1,.44,1.27,2.53,2.53,0,0,1-.7,1.9A2.16,2.16,0,0,1,815.78,526.25Z"/><path class="cls-3" d="M829.58,564.29a17.72,17.72,0,0,1-4-.41,13.11,13.11,0,0,1-3.08-1.07v-3.54a12.87,12.87,0,0,0,3.08,1.27,13.59,13.59,0,0,0,3.82.57,7.13,7.13,0,0,0,4.43-1.31,7.48,7.48,0,0,0,2.47-4.37l.39-1.66c.12-.61.26-1.24.44-1.9s.39-1.45.66-2.38h-.18a18.94,18.94,0,0,1-3.41,3.34,7,7,0,0,1-4.32,1.42,5.82,5.82,0,0,1-4.61-2q-1.77-2-1.77-6a23.46,23.46,0,0,1,.79-6.11,17.88,17.88,0,0,1,2.29-5.22,12,12,0,0,1,3.63-3.63A8.8,8.8,0,0,1,835,530a5.59,5.59,0,0,1,3.78,1.22A8.33,8.33,0,0,1,841,534h.18l1.44-3.63h2.93l-5.33,24.76q-1,4.94-3.73,7A10.85,10.85,0,0,1,829.58,564.29Zm1.62-13.23a5,5,0,0,0,3-1.09,11.64,11.64,0,0,0,2.73-2.95,16.62,16.62,0,0,0,2.73-9.11,5.53,5.53,0,0,0-1-3.41,3.86,3.86,0,0,0-3.3-1.31,5.1,5.1,0,0,0-3.19,1.11,9.68,9.68,0,0,0-2.49,3,16.69,16.69,0,0,0-1.62,4.24,20.43,20.43,0,0,0-.57,4.8Q827.48,551.06,831.19,551.06Z"/><path class="cls-3" d="M857.31,554.25a8.12,8.12,0,0,1-6.27-2.38,9.1,9.1,0,0,1-2.21-6.44,19.38,19.38,0,0,1,.81-5.53,17.78,17.78,0,0,1,2.34-5,12.42,12.42,0,0,1,3.69-3.6,9,9,0,0,1,4.87-1.35,7.51,7.51,0,0,1,5,1.44,5,5,0,0,1,1.68,4,6.69,6.69,0,0,1-1.42,4.17,9.58,9.58,0,0,1-4.43,3,22.94,22.94,0,0,1-7.82,1.11h-.74q0,.39-.07.83t0,.79a6.39,6.39,0,0,0,1.29,4.22,4.9,4.9,0,0,0,4,1.55,10.61,10.61,0,0,0,3.14-.46,21.52,21.52,0,0,0,3.23-1.33v3.28a27.15,27.15,0,0,1-3.25,1.22A13.35,13.35,0,0,1,857.31,554.25Zm-3.93-13.67h.3a24.06,24.06,0,0,0,4.85-.46,8.44,8.44,0,0,0,3.58-1.53,3.46,3.46,0,0,0,1.35-2.86,2.44,2.44,0,0,0-.76-1.86,3.37,3.37,0,0,0-2.38-.72,5.73,5.73,0,0,0-4,1.94A12,12,0,0,0,853.38,540.58Z"/><path class="cls-3" d="M869.72,553.81l7.08-33.19h3.84l-7.08,33.19Z"/><path class="cls-2" d="M238.1,509.55l-13.81-5.3,1.15-3,10.15,3.9,2.73-7.12-9.52-3.65,1.13-2.95,9.52,3.66,3.09-8-10.15-3.9,1.15-3,13.82,5.3Z"/><path class="cls-2" d="M229.4,478.18l-1,2-2.95-.65-8.76,17.76,2.33,1.9-1,2.1L209.16,497l1-2.1,2.93.69,8.76-17.76-2.31-1.95,1-2Z"/><path class="cls-2" d="M183.52,481.47l13.95-21.71,4.06,2.61L201.22,487l.15.1q.62-1,1.51-2.65t1.67-2.81l7.9-12.3,3,1.93L201.51,493l-4.06-2.61.3-24.58-.11-.07c-.29.56-.74,1.35-1.35,2.35s-1.2,1.95-1.77,2.83l-8,12.45Z"/><path class="cls-2" d="M175.06,474.9l-11.3-9.56,2.07-2.45,8.3,7,4.92-5.82-7.79-6.58,2-2.41,7.79,6.58,5.56-6.58-8.3-7,2.07-2.45,11.3,9.56Z"/><path class="cls-2" d="M151.84,424.68a6.72,6.72,0,0,1,5.75-1.53,10.45,10.45,0,0,1,6,4,25.13,25.13,0,0,1,2.5,3.52,16,16,0,0,1,1.38,3.16l-2.78,2.3a17.78,17.78,0,0,0-3.6-6.91,6.78,6.78,0,0,0-3.24-2.33,3.29,3.29,0,0,0-3.21.69,3.11,3.11,0,0,0-1.23,3,30.3,30.3,0,0,0,1.23,4.72,15.2,15.2,0,0,1,1.07,5.61,6,6,0,0,1-2.5,4.34,6.18,6.18,0,0,1-3.67,1.51,7.24,7.24,0,0,1-3.87-.93,12,12,0,0,1-3.51-3,17.12,17.12,0,0,1-2.18-3.35,21.58,21.58,0,0,1-1.34-3.4l3.21-1a18.52,18.52,0,0,0,1.2,3.19,13.2,13.2,0,0,0,1.64,2.59,6,6,0,0,0,3,2.13,3.12,3.12,0,0,0,2.94-.7,3,3,0,0,0,1.19-1.89,6,6,0,0,0-.23-2.41q-.38-1.38-1-3.3a24.22,24.22,0,0,1-1-3.83,7.29,7.29,0,0,1,.17-3.33A6.06,6.06,0,0,1,151.84,424.68Z"/><path class="cls-2" d="M123.46,415.89l2.83-1.85,4.2,6.42,18.76-12.28,2.15,3.28-18.76,12.28,4.2,6.42L134,432Z"/><path class="cls-2" d="M110.69,390.84l14.6-7.11A9.68,9.68,0,0,1,133,383q3.54,1.29,5.75,5.83t1,7.93a9.76,9.76,0,0,1-5.4,5.56l-14.64,7.13L118,405.85l14.48-7.05a7,7,0,0,0,3.8-3.68,6.31,6.31,0,0,0-.54-5.08,6,6,0,0,0-3.61-3.44,7,7,0,0,0-5.14.72l-14.56,7.09Z"/><path class="cls-2" d="M100.22,360.51l24.6-7.8,1.46,4.6-16,18.8.05.17q1.15-.41,2.86-1.07t3.08-1.1l13.94-4.42,1.08,3.4-24.6,7.8-1.46-4.6,15.93-18.73,0-.13q-.88.37-2.54.95t-3.17,1.05l-14.11,4.47Z"/><path class="cls-2" d="M106.81,327.26q6.46-1.05,10.33,1.93t4.91,9.39l1.15,7.08-25.47,4.15-1.26-7.75q-1-6.24,1.64-10T106.81,327.26Zm.8,4q-4.63.75-6.6,3.41t-1.26,7l.6,3.7,19-3.09-.52-3.21Q117.27,329.71,107.61,331.29Z"/><path class="cls-2" d="M93.74,320l-.52-14.79,3.2-.11.39,10.87,7.62-.27-.36-10.19,3.16-.11.36,10.19,8.61-.3-.38-10.87,3.2-.11.52,14.79Z"/><path class="cls-2" d="M94.61,281.76l2.06-14.61,3.17.45-1.51,10.72,8.58,1.21,1.42-10.05,3.17.45L110.08,280l10.63,1.5-.55,3.89Z"/><path class="cls-2" d="M93.67,254.2a2.3,2.3,0,0,1-1.55-1A2.11,2.11,0,0,1,92,251.6a2.07,2.07,0,0,1,.93-1.29,2.86,2.86,0,0,1,3.35.9,2.24,2.24,0,0,1-.78,2.87A2.31,2.31,0,0,1,93.67,254.2Zm2.26-8.36a2.29,2.29,0,0,1-1.55-1,2.16,2.16,0,0,1-.12-1.62,2.09,2.09,0,0,1,.93-1.27,2.79,2.79,0,0,1,3.36.91,2.08,2.08,0,0,1,.16,1.56,2.12,2.12,0,0,1-.94,1.33A2.31,2.31,0,0,1,95.93,245.84Zm7.59-6.32,15.68,4.23a9.69,9.69,0,0,1,6.35,4.52q1.82,3.29.51,8.17t-4.47,6.62a9.75,9.75,0,0,1-7.72.65l-15.73-4.24,1-3.83,15.55,4.2a7,7,0,0,0,5.29-.28,6.3,6.3,0,0,0,2.93-4.19,6,6,0,0,0-.46-5,7,7,0,0,0-4.35-2.83l-15.64-4.22Z"/><path class="cls-2" d="M109.8,223q3.84-9.2,10.63-6.36a7.49,7.49,0,0,1,3.49,2.78,7.31,7.31,0,0,1,1,4.62l13.34-2.2L136.54,226l-12,1.67L122.7,232l9.66,4-1.51,3.62-23.81-10Zm10,7.69,1.37-3.29a7,7,0,0,0,.59-4.23,3.92,3.92,0,0,0-2.58-2.72,3.85,3.85,0,0,0-3.83.09,8.14,8.14,0,0,0-2.65,3.71l-1.24,3Z"/><path class="cls-2" d="M147.3,182.17q5.41,3.67,6.17,8.5t-2.89,10.2l-4,5.94L125.2,192.31l4.41-6.49q3.55-5.23,8.08-6.16T147.3,182.17Zm-2.19,3.47q-3.88-2.64-7.13-2.06t-5.73,4.23l-2.1,3.1L146,201.71l1.82-2.69Q153.2,191.14,145.11,185.65Z"/><path class="cls-2" d="M161.27,186.16l-1.72-1.46,1.35-2.7-15.09-12.83L143.4,171l-1.79-1.52L148,162l1.79,1.52-1.38,2.67L163.47,179l2.45-1.77,1.72,1.46Z"/><path class="cls-2" d="M153.52,155.89l10.59-10.34,2.24,2.29-7.78,7.6,5.33,5.45,7.29-7.12L173.4,156l-7.29,7.12,6,6.16,7.78-7.6,2.24,2.29-10.59,10.34Z"/><path class="cls-2" d="M189.09,126.24q4.32-2.88,7.2-2.79a5.6,5.6,0,0,1,4.65,2.76,5.31,5.31,0,0,1,1,3.91,6.28,6.28,0,0,1-1.94,3.51l.08.11a7.63,7.63,0,0,1,4.33-.69,5.53,5.53,0,0,1,3.56,2.7,6.43,6.43,0,0,1,.93,6.07,11.51,11.51,0,0,1-4.69,5.37l-7.4,4.93-14.3-21.48Zm6.4,9A6.79,6.79,0,0,0,198.4,132a3.59,3.59,0,0,0-.59-3.21q-2.15-3.23-7,0l-3.34,2.23,4.38,6.57Zm6.82,9.5q4.69-3.13,2.17-6.92a3.73,3.73,0,0,0-2.93-1.79,7.32,7.32,0,0,0-4.38,1.56L193.45,140l4.88,7.32Z"/><path class="cls-2" d="M216,139.86l-1.06-2,2.25-2L208,118.35l-2.91.78-1.1-2.07,8.69-4.6,1.1,2.07-2.28,2,9.27,17.5,2.93-.74,1.06,2Z"/><path class="cls-2" d="M246.48,112.1a17.32,17.32,0,0,1,1.33,7,10.15,10.15,0,0,1-2,5.8,12.52,12.52,0,0,1-5.69,4,12.69,12.69,0,0,1-6.91.92,10.18,10.18,0,0,1-5.47-2.89,17.2,17.2,0,0,1-3.79-6,16.76,16.76,0,0,1-1.28-6.91,10.24,10.24,0,0,1,2.06-5.8,12.69,12.69,0,0,1,5.69-4,12.4,12.4,0,0,1,6.92-.9,10.31,10.31,0,0,1,5.4,2.89A17.05,17.05,0,0,1,246.48,112.1Zm-18.65,7.32a12.35,12.35,0,0,0,4.4,6q2.75,1.83,6.62.31t4.65-4.71a12.33,12.33,0,0,0-.88-7.43q-1.71-4.37-4.51-6.06a7,7,0,0,0-6.49-.24q-3.82,1.5-4.62,4.7A12.13,12.13,0,0,0,227.83,119.42Z"/><path class="cls-2" d="M274.25,105q1.48,6.37-1.24,10.43t-9,5.53l-7,1.62L251.15,97.4l7.65-1.78q6.15-1.43,10.11,1T274.25,105Zm-4,1.06q-1.06-4.57-3.84-6.36t-7.08-.79l-3.65.85,4.35,18.72,3.16-.73Q272.5,115.55,270.28,106Z"/><path class="cls-2" d="M281.79,117.36l-.27-2.24,2.83-1.07L282,94.39l-3-.32-.28-2.33,9.76-1.18.28,2.33-2.83,1,2.38,19.66,3,.36.27,2.24Z"/><path class="cls-2" d="M303.21,115.49l-9.78-25.61,4.33-.09,5.94,16.75q.58,1.57.94,2.71t.65,2.13q.2-1,.58-2.29t.8-2.61l5.24-17,4.38-.09-8.76,26Z"/><path class="cls-2" d="M323.4,90l14.73,1.43-.31,3.19L327,93.53l-.74,7.59,10.15,1-.31,3.14-10.15-1-.84,8.58,10.82,1.05-.31,3.19-14.73-1.43Z"/><path class="cls-2" d="M354.1,94.32q9.74,2.12,8.18,9.31a7.47,7.47,0,0,1-2.1,3.93,7.3,7.3,0,0,1-4.37,1.82l4.57,12.72-4.36-.95-3.81-11.54-4.54-1-2.23,10.23L341.6,118l5.49-25.22Zm-5.77,11.21,3.48.76a7,7,0,0,0,4.27-.18,3.93,3.93,0,0,0,2.21-3,3.86,3.86,0,0,0-.78-3.75,8.13,8.13,0,0,0-4.13-1.94l-3.13-.68Z"/><path class="cls-2" d="M381.62,121.85a6.73,6.73,0,0,1-4.11,4.31,10.45,10.45,0,0,1-7.2-.29,25.14,25.14,0,0,1-4-1.7,16,16,0,0,1-2.83-2l1.18-3.41a17.8,17.8,0,0,0,6.68,4,6.78,6.78,0,0,0,4,.3,3.3,3.3,0,0,0,2.38-2.26,3.11,3.11,0,0,0-.52-3.21,30.37,30.37,0,0,0-3.51-3.38,15.2,15.2,0,0,1-3.84-4.24,6,6,0,0,1-.13-5,6.17,6.17,0,0,1,2.34-3.2,7.24,7.24,0,0,1,3.79-1.22,12,12,0,0,1,4.55.71A17.15,17.15,0,0,1,384,103a21.46,21.46,0,0,1,2.92,2.2l-2.21,2.53a18.67,18.67,0,0,0-2.69-2.1,13.16,13.16,0,0,0-2.75-1.36,6,6,0,0,0-3.66-.26,3.12,3.12,0,0,0-2.14,2.13,3,3,0,0,0,0,2.23,6,6,0,0,0,1.46,1.94q1,1,2.54,2.31a24.28,24.28,0,0,1,2.85,2.75,7.27,7.27,0,0,1,1.59,2.93A6.06,6.06,0,0,1,381.62,121.85Z"/><path class="cls-2" d="M383.14,130.28l.93-2.06,3,.55,8.13-18.06-2.4-1.82,1-2.14,9,4-1,2.14-3-.59-8.13,18.06,2.38,1.86-.92,2.06Z"/><path class="cls-2" d="M424.35,122.51l-1.67,2.94L416,121.68l-11,19.51-3.42-1.94,11-19.51L405.92,116l1.67-2.94Z"/><path class="cls-2" d="M411.76,144.89l23.13-15.19,3.61,2.63L431,158.92l-3.5-2.55,2.25-7.46-8-5.82-6.52,4.35Zm19,.67,2.25-7.3q.27-1,.61-2.07a19.35,19.35,0,0,1,.8-2.09q-.86.71-1.74,1.36l-1.81,1.3-6.27,4.31Zm4-22.85a2.3,2.3,0,0,1,1.51-1.08,2.11,2.11,0,0,1,1.52.44,2.06,2.06,0,0,1,.87,1.33,2.86,2.86,0,0,1-2,2.81,2.24,2.24,0,0,1-2.41-1.75A2.3,2.3,0,0,1,434.79,122.71Zm7,5.1a2.3,2.3,0,0,1,1.51-1.08,2.17,2.17,0,0,1,1.56.47,2.08,2.08,0,0,1,.85,1.32,2.78,2.78,0,0,1-2,2.81,2.08,2.08,0,0,1-1.52-.41,2.11,2.11,0,0,1-.91-1.36A2.3,2.3,0,0,1,441.79,127.81Z"/><path class="cls-2" d="M462.65,153.14l-2.29,2.49-5.64-5.19-15.18,16.5-2.89-2.66,15.19-16.5-5.64-5.19,2.29-2.49Z"/></svg>